<?xml version="1.0" encoding="utf-8"?>
<!-- Generator: Adobe Illustrator 21.0.0, SVG Export Plug-In . SVG Version: 6.00 Build 0)  -->
<!DOCTYPE svg PUBLIC "-//W3C//DTD SVG 1.1//EN" "http://www.w3.org/Graphics/SVG/1.1/DTD/svg11.dtd" [
	<!ENTITY st0 "fill:#02217B;">
	<!ENTITY st1 "fill:#022386;">
	<!ENTITY st2 "fill:#00F9FF;">
	<!ENTITY st3 "display:none;fill:#00F9FF;">
	<!ENTITY st4 "fill:#A7C2F9;">
	<!ENTITY st5 "font-family:'MicrosoftYaHeiLight';">
	<!ENTITY st6 "font-size:9.8611px;">
	<!ENTITY st7 "font-size:8.5625px;">
	<!ENTITY st8 "font-size:6px;">
	<!ENTITY st9 "font-size:4.0625px;">
	<!ENTITY st10 "font-size:4.8125px;">
	<!ENTITY st11 "font-size:3.3125px;">
	<!ENTITY st12 "font-size:1.5357px;">
	<!ENTITY st13 "font-size:2.2083px;">
	<!ENTITY st14 "font-size:2.8126px;">
	<!ENTITY st15 "font-size:3.287px;">
	<!ENTITY st16 "font-size:4.0501px;">
	<!ENTITY st17 "font-size:4.875px;">
	<!ENTITY st18 "font-size:4.4167px;">
	<!ENTITY st19 "font-size:2.0624px;">
	<!ENTITY st20 "font-size:2.4643px;">
	<!ENTITY st21 "font-size:3.05px;">
	<!ENTITY st22 "font-size:3.0833px;">
	<!ENTITY st23 "font-size:7.4169px;">
	<!ENTITY st24 "font-size:2.8502px;">
	<!ENTITY st25 "fill:#FFFFFF;">
	<!ENTITY st26 "font-size:3.8319px;">
]>
<svg version="1.1" id="图层_1" xmlns="http://www.w3.org/2000/svg" xmlns:xlink="http://www.w3.org/1999/xlink" x="0px" y="0px"
	 viewBox="0 0 1920 1080" style="enable-background:new 0 0 1920 1080;" xml:space="preserve">
<g id="区域">
	<path style="&st0;" d="M584.8,1008.8l75.3-4.7c0.5,0,0.9,0.3,1,0.8l6.7,67.3c0.1,0.5-0.3,1-0.9,1l-75.3,3.8c-0.5,0-0.9-0.3-0.9-0.8
		l-6.7-66.4C583.9,1009.2,584.3,1008.8,584.8,1008.8z"/>
	<path style="&st0;" d="M667.2,1003.9l73.8-5.5c0.5,0,0.9,0.3,0.9,0.8l6.5,66.5c0,0.5-0.3,0.9-0.8,0.9l-74.4,5.4
		c-0.5,0-0.9-0.3-0.9-0.8l-5.9-66.5C666.4,1004.3,666.7,1003.9,667.2,1003.9z"/>
	<path style="&st0;" d="M748,998l165.6-38.1l15.4,67.5l-175.3,39.3l-6.9-67.1C746.8,998.9,747.3,998.1,748,998z"/>
	<polygon style="&st0;" points="920.2,960.8 921.2,959 995.4,941.1 996.9,942.7 1012.5,1007.3 1011.5,1009 936.7,1025.8 
		935.1,1025.8 	"/>
	<polygon style="&st0;" points="1001.9,941.1 1003.1,939.8 1079.1,922.3 1080.7,923.4 1079.4,991.4 1078.5,992.7 1019.4,1006.8 
		1017.4,1006 	"/>
	<path style="&st0;" d="M584.8,1004l74.6-4.9l1.3-1.6l-6.3-67.6l-36.3-27.1h-1.3C616.8,902.8,570.4,937.6,584.8,1004z"/>
	<path style="&st0;" d="M659.5,932.4l6,64.9l0.9,1.1l75.4-4.4l-6.3-68.3l-1.1-0.9l-72.1,4.6C662.2,929.4,659.2,929.1,659.5,932.4z"
		/>
	<polygon style="&st0;" points="745.8,991.7 747.5,992.6 910.5,956.1 912.2,954.6 897.8,889.3 896.1,888.3 741.8,923.4 740.5,925.7 
			"/>
	<polygon style="&st0;" points="903.5,888.3 918.2,953.3 919.5,954 994.9,936.1 996.1,935.3 980.5,869.8 978.9,869 904.5,886.7 	"/>
	<polygon style="&st0;" points="985.2,869 1001.2,934.3 1081.4,915.8 1103.2,841.3 1102.1,840.4 985.9,867.4 	"/>
	<path style="&st0;" d="M969.4,797.7l14.3,63.7l1.6,1.7l121.3-28.6l21.4-73.4c0,0,0.6-2-2.3-1.4c-2.9,0.6-154.6,35.4-154.6,35.4
		L969.4,797.7z"/>
	<polygon style="&st0;" points="886.5,816.3 901.7,880 903.5,881.3 977.9,864.4 979.2,863.1 964.4,798.1 962.7,797.1 887.9,814.6 	
		"/>
	<polygon style="&st0;" points="740.5,917.6 741.8,918.6 893.9,883.4 895.7,882.3 880.2,817.1 878.7,816 735.1,849.8 734.4,852.1 	
		"/>
	<polygon style="&st0;" points="657.1,924.8 733.6,919.7 734.4,918.6 728.8,850.7 727.8,849.4 671.9,829.1 670.9,829.1 621.4,896.7 
		623.2,899.3 	"/>
	<path style="&st1;" d="M675.3,824.8l55.2,20.7l145-34l2-2l-15-65l-166,38c0,0-1,1-4,8c-2.9,6.7-13.2,27.3-17.5,33.4
		C674.8,824.2,674.9,824.6,675.3,824.8z"/>
	<polygon style="&st1;" points="869,744 884,809 887,810 961,793 963,791 947,726 945,725 870,742 	"/>
	<polygon style="&st1;" points="966,789 969,790 1022,777 1006,711 952,723 952,725 	"/>
	<polygon style="&st1;" points="1007,711 1024,776 1126,754 1129,752 1118,687 1116,686 1007,710 	"/>
	<polygon style="&st1;" points="1114,680 1117,678 1102,613 1101,612 1052,624 1068,691 	"/>
	<polygon style="&st1;" points="1012,704 1067,691 1051,624 997,637 	"/>
	<polygon style="&st1;" points="1011,705 995,637 938,650 936,653 950,717 952,718 	"/>
	<polygon style="&st1;" points="943,720 945,718 929,652 854,670 853,673 868,736 871,737 	"/>
	<polygon style="&st1;" points="861,738 846,672 713,703 719,772 	"/>
	<path style="&st1;" d="M697,777l21-5l-6-69l-11,2C701,705,704,764,697,777z"/>
	<path style="&st1;" d="M708.8,699.2L700,700l-4.9-66.2c-0.1-1.1,0.6-2,1.6-2.4l7.3-2.4l6.8,67.8C710.9,698,710,699.1,708.8,699.2z"
		/>
	<polygon style="&st1;" points="712,698 760,686 744,620 706,628 	"/>
	<polygon style="&st1;" points="753,653 794,643 802,677 761,686 	"/>
	<polygon style="&st1;" points="804,677 844,667 836,634 796,643 	"/>
	<polygon style="&st1;" points="795,642 836,633 829,600 787,610 	"/>
	<polygon style="&st1;" points="794,642 786,610 745,620 753,652 	"/>
	<polygon style="&st1;" points="851,664 929,647 921,616 844,634 	"/>
	<polygon style="&st1;" points="844,633 921,614 913,580 836,598 	"/>
	<path style="&st1;" d="M918,581l15,65l100-23l-15-67h-2l3,14l-14,3l-3-13l-83,18C919,578,918,579,918,581z"/>
	<polygon style="&st1;" points="1006,572 1018,569 1015,556 1003,560 	"/>
	<path style="&st1;" d="M1019,556l16,66l65-14l1-2c0,0-11-59-16-64c0,0,0-2-7,0S1019,556,1019,556z"/>
	<path style="&st1;" d="M1019,550l62-15c0,0-5-10-16-21s-30-33-34-34l-27,7L1019,550z"/>
	<polygon style="&st1;" points="1018,550 963,563 949,499 1003,487 	"/>
	<polygon style="&st1;" points="962,564 947,499 902,510 917,574 	"/>
	<polygon style="&st1;" points="912,575 908,558 885,563 889,580 	"/>
	<polygon style="&st1;" points="870,584 888,580 882,556 865,560 	"/>
	<polygon style="&st1;" points="869,584 864,560 828,568 834,593 	"/>
	<polygon style="&st1;" points="828,567 882,555 878,537 873,538 867,518 820,528 	"/>
	<polygon style="&st1;" points="868,517 896,511 901,531 874,537 	"/>
	<polygon style="&st1;" points="902,532 908,557 885,562 879,537 	"/>
	<path style="&st1;" d="M827.7,592.9l-7.5-32.7c-0.1-0.6-0.8-1-1.4-0.9l-57.7,13.5c-0.6,0.1-1,0.8-0.9,1.4l7.5,32.7
		c0.1,0.6,0.8,1,1.4,0.9l57.7-13.5C827.5,594.1,827.9,593.5,827.7,592.9z"/>
	<path style="&st1;" d="M760.9,570.8l58.1-12.6c0.5-0.1,0.9-0.7,0.8-1.2l-6.2-25.7c-0.3-1.3-1.6-2.1-2.9-1.8L754,542.8
		c-0.5,0.1-0.9,0.7-0.7,1.2l6.5,26.1C759.9,570.6,760.4,570.9,760.9,570.8z"/>
	<polygon style="&st1;" points="705,623 767,608 754,555 727,562 729,571 701,579 	"/>
	<polygon style="&st1;" points="727,570 723,551 698,556 701,577 	"/>
	<polygon style="&st1;" points="724,550 734,548 736,558 726,561 	"/>
	<polygon style="&st1;" points="735,548 752,544 754,554 737,558 	"/>
	<polygon style="&st1;" points="695,626 704,623 697,557 691,558 	"/>
	<polygon style="&st1;" points="695,551 709,547 701,511 687,514 	"/>
	<polygon style="&st1;" points="702,511 728,506 737,540 710,547 	"/>
	<polygon style="&st1;" points="729,506 771,500 778,531 738,540 	"/>
	<polygon style="&st1;" points="772,500 785,498 792,528 779,531 	"/>
	<path style="&st1;" d="M786,498l21-3l4,26c0,0,0,2-3,3s-15,4-15,4L786,498z"/>
	<polygon style="&st1;" points="813,485 818,522 856,513 848,477 	"/>
	<polygon style="&st1;" points="849,476 857,513 895,505 887,467 	"/>
	<path style="&st1;" d="M807,449l5,35l35-8l-8-35c0,0-30,6-31,7S807,449,807,449z"/>
	<polygon style="&st1;" points="841,441 849,475 887,466 879,433 877,432 841,440 	"/>
	<polygon style="&st1;" points="807,494 801,449 800,448 728,458 734,504 	"/>
	<polygon style="&st1;" points="733,504 714,507 707,459 727,458 	"/>
	<polygon style="&st1;" points="713,507 687,513 683,459 706,459 	"/>
	<polygon style="&st1;" points="900,503 936,495 919,422 883,430 	"/>
	<polygon style="&st1;" points="937,495 974,487 957,413 920,422 	"/>
	<polygon style="&st1;" points="1007,479 974,486.3 958,413 969,411 	"/>
	<path style="&st1;" d="M1008,479l20-4l-48-65c0,0-1-1-3-1s-7,1-7,1L1008,479z"/>
	<path style="&st1;" d="M946,410l28-6l1-1l-32-44c0,0-1-1-3-1s-6,1-6,1L946,410z"/>
	<polygon style="&st1;" points="914,418 946,411 933,359 903,367 	"/>
	<polygon style="&st1;" points="880,417 911,410 913,418 883,425 	"/>
	<polygon style="&st1;" points="880,416 911,409 907,393 877,400 	"/>
	<polygon style="&st1;" points="876,399 908,392 902,367 870,374 	"/>
	<polygon style="&st1;" points="865,416 874,414 877,426 868,429 	"/>
	<polygon style="&st1;" points="866,429 806,443 800,418 854,405 852,395 869,391 874,413 864,415 	"/>
	<polygon style="&st1;" points="848,379 865,375 869,390 852,394 	"/>
	<polygon style="&st1;" points="800,417 853,405 847,379 794,391 	"/>
	<path style="&st1;" d="M751,419"/>
	<polygon style="&st1;" points="747,403 788,393 792,409 751,419 	"/>
	<polygon style="&st1;" points="751,420 758,449 800,443 792,410 	"/>
	<polygon style="&st1;" points="720,427 722,453 753,449 746,420 	"/>
	<polygon style="&st1;" points="706,437 707,454 721,453 720,436 	"/>
	<polygon style="&st1;" points="679,439 680,444 685,444 685,440 692,440 694,439 	"/>
	<rect x="695" y="438" style="&st1;" width="8" height="2"/>
	<polygon style="&st1;" points="680,445 682,454 685,454 685,445 	"/>
	<polygon style="&st1;" points="686,445 695,444 695,441 705,441 706,454 686,454 	"/>
	
		<rect x="677.4" y="426" transform="matrix(0.9923 -0.124 0.124 0.9923 -48.0414 88.3463)" style="&st1;" width="16.1" height="8.1"/>
	<polygon style="&st1;" points="695,433 746,420 745,414 732,417 730,407 717,409 720,422 694,425 	"/>
	<polygon style="&st1;" points="731,407 733,416 745,413 743,404 	"/>
	<polygon style="&st1;" points="687,415 689,425 719,421 716,409 	"/>
	<polygon style="&st1;" points="673,408 683,406 688,425 677,426 	"/>
	<polygon style="&st1;" points="670,396 673,407 686,404 683,392 	"/>
	<path style="&st1;" d="M670.8,394.8L683,391l-9-34l-13,3l8.8,34.2C669.9,394.6,670.4,394.9,670.8,394.8z"/>
	<polygon style="&st1;" points="675,357 699,351 712,405 689,411 	"/>
	<polygon style="&st1;" points="700,352 728,345 733,363 704,369 	"/>
	<polygon style="&st1;" points="705,371 709,387 737,380 733,365 	"/>
	<polygon style="&st1;" points="709,389 713,405 739,399 741,397 737,382 	"/>
	<polygon style="&st1;" points="740,371 760,366 766,392 746,398 	"/>
	<polygon style="&st1;" points="762,366 768,392 786,388 787,386 781,361 	"/>
	<polygon style="&st1;" points="740,370 781,360 774,334 733,344 	"/>
	<path style="&st1;" d="M798,385l63-15l2-2l-11-50l-2-2l-68,16c0,0-1,1-1,2s12,51,12,51S794,386,798,385z"/>
	<path style="&st1;" d="M867,356l2,11c0,0,1,2,4,1s27-7,27-7l-3-12L867,356z"/>
	<polygon style="&st1;" points="898,347 921,341 925,356 901,361 	"/>
	<polygon style="&st1;" points="922,341 926,355 936,353 	"/>
	<polygon style="&st1;" points="866,355 897,348 896,346 921,340 884,309 857,315 	"/>
	<path style="&st1;" d="M835,315l0.5-0.1L877,304c0,0-23-18-28-23s-10-13-12-17s-4-6-9-4s-34,9-34,9L835,315z"/>
	<polygon style="&st1;" points="774,302 780,328 833,315 814,293 	"/>
	<polygon style="&st1;" points="767,276 773,301 790,297 784,271 768,275 	"/>
	<polygon style="&st1;" points="785,271 791,297 813,292 793,269 	"/>
	<polygon style="&st1;" points="727,313 767,304 773,329 733,338 	"/>
	<polygon style="&st1;" points="727,311 767,302 760,277 721,286 	"/>
	<polygon style="&st1;" points="680,351 661,355 656,303 657,302 675,297 	"/>
	<polygon style="&st1;" points="681,350 728,340 715,288 676,297 	"/>
	<polygon style="&st1;" points="674,292 668,218 650,221 648,223 654,296 656,296 	"/>
	<polygon style="&st1;" points="675,292 713,283 714,281 702,214 699,213 669,218 	"/>
	<polygon style="&st1;" points="721,281 759,272 760,270 747,203 707,211 706,213 719,280 	"/>
	<path style="&st1;" d="M754.2,204.1l11.5,65.1c0.2,0.9,1.1,1.5,2,1.3l61.7-16.1c0.8-0.2,1.2-1.1,0.8-1.9l-34.4-57.3
		c-0.4-0.7-1.3-1.1-2.1-0.9L755,202l-0.2,0.2C754.3,202.7,754.1,203.4,754.2,204.1z"/>
	<path style="&st1;" d="M755,196.7l38-6.7c0,0-18-30-19-35c-0.8-4.2-3.8-23.2-4.7-29.2c-0.2-1-1.1-1.7-2.1-1.5l-25,4.3
		c-1.2,0.2-2,1.3-1.7,2.5l12.2,63.9C752.8,196.1,753.9,196.8,755,196.7z"/>
	<path style="&st1;" d="M707,205.7l36.8-6.4c0.8-0.1,1.4-0.6,1.7-1.3l0.2-0.3c0.2-0.4,0.3-0.8,0.2-1.2l-11.6-64.8
		c-0.2-0.9-1-1.4-1.8-1.3l-37.9,7.4c-0.9,0.2-1.4,1-1.3,1.9l11.4,64.5C704.8,205.1,705.9,205.8,707,205.7z"/>
	<path style="&st1;" d="M667.9,210.9c0.1,0.6,0.6,1,1.2,0.9L700,207v-1l-11.7-65.5c-0.1-0.8-0.9-1.3-1.7-1.2l-23.1,4.5
		c-0.8,0.2-1.3,0.9-1.3,1.7L667.9,210.9z"/>
	<path style="&st1;" d="M648.2,215.2l0.6,0.6c0.2,0.2,0.4,0.2,0.6,0.2l17-2.8c0.4-0.1,0.6-0.4,0.6-0.7l-5.9-67.6
		c0-0.4-0.4-0.7-0.8-0.6l-16.1,3.4c-1.2,0.3-2,1.4-1.9,2.6l5.8,64.6C648,214.9,648.1,215.1,648.2,215.2z"/>
	<path style="&st1;" d="M641,143l92-17c0,0-8-54-15-69s-8-17-11-16s-50,24-56,34S634,103,641,143z"/>
	<polygon style="&st1;" points="746,122 741,94 733,96 738,124 	"/>
	<polygon style="&st1;" points="747,122 767,119 768,118 757,52 727,65 733,95 742,93 	"/>
	<path style="&st1;" d="M726,64l30-14l-13-21c0,0-7-5-13-2s-17,10-17,10L726,64z"/>
	<polygon style="&st1;" points="713,30 732,20 723,6 705,16 	"/>
</g>
<g id="定位">
	<path name="position" style="&st2;" d="M815,663.5c-0.7-0.7-1-1.5-1-2.5c0-0.9,0.4-1.8,1-2.5c1.4-1.4,3.6-1.4,4.9,0c0.7,0.7,1,1.5,1,2.5
		s-0.4,1.8-1,2.5l-2.5,2.5L815,663.5z M817.5,662.1c0.6,0,1.1-0.5,1.1-1.1s-0.5-1.1-1.1-1.1c-0.6,0-1,0.5-1,1.1
		S816.9,662.1,817.5,662.1L817.5,662.1z M817.5,662.1" fill="red"/>
	<path style="&st2;" d="M902,638.5c-0.7-0.7-1-1.5-1-2.5c0-0.9,0.4-1.8,1-2.5c1.4-1.4,3.6-1.4,4.9,0c0.7,0.7,1,1.5,1,2.5
		s-0.4,1.8-1,2.5l-2.5,2.5L902,638.5z M904.5,637.1c0.6,0,1.1-0.5,1.1-1.1s-0.5-1.1-1.1-1.1c-0.6,0-1,0.5-1,1.1
		S903.9,637.1,904.5,637.1L904.5,637.1z M904.5,637.1"/>
	<path style="&st2;" d="M896,603.5c-0.7-0.7-1-1.5-1-2.5c0-0.9,0.4-1.8,1-2.5c1.4-1.4,3.6-1.4,4.9,0c0.7,0.7,1,1.5,1,2.5
		s-0.4,1.8-1,2.5l-2.5,2.5L896,603.5z M898.5,602.1c0.6,0,1.1-0.5,1.1-1.1s-0.5-1.1-1.1-1.1c-0.6,0-1,0.5-1,1.1
		S897.9,602.1,898.5,602.1L898.5,602.1z M898.5,602.1"/>
	<path style="&st3;" d="M966,609.5c-0.7-0.7-1-1.5-1-2.5c0-0.9,0.4-1.8,1-2.5c1.4-1.4,3.6-1.4,4.9,0c0.7,0.7,1,1.5,1,2.5
		s-0.4,1.8-1,2.5l-2.5,2.5L966,609.5z M968.5,608.1c0.6,0,1.1-0.5,1.1-1.1s-0.5-1.1-1.1-1.1c-0.6,0-1,0.5-1,1.1
		S967.9,608.1,968.5,608.1L968.5,608.1z M968.5,608.1"/>
	<path style="&st2;" d="M1057,573.5c-0.7-0.7-1-1.5-1-2.5c0-0.9,0.4-1.8,1-2.5c1.4-1.4,3.6-1.4,4.9,0c0.7,0.7,1,1.5,1,2.5
		s-0.4,1.8-1,2.5l-2.5,2.5L1057,573.5z M1059.5,572.1c0.6,0,1.1-0.5,1.1-1.1s-0.5-1.1-1.1-1.1c-0.6,0-1.1,0.5-1.1,1.1
		S1058.9,572.1,1059.5,572.1L1059.5,572.1z M1059.5,572.1"/>
	<path style="&st2;" d="M971,686.5c-0.7-0.7-1-1.5-1-2.5c0-0.9,0.4-1.8,1-2.5c1.4-1.4,3.6-1.4,4.9,0c0.7,0.7,1,1.5,1,2.5
		s-0.4,1.8-1,2.5l-2.5,2.5L971,686.5z M973.5,685.1c0.6,0,1.1-0.5,1.1-1.1s-0.5-1.1-1.1-1.1c-0.6,0-1,0.5-1,1.1
		S972.9,685.1,973.5,685.1L973.5,685.1z M973.5,685.1"/>
	<path style="&st3;" d="M1079,661.5c-0.7-0.7-1-1.5-1-2.5c0-0.9,0.4-1.8,1-2.5c1.4-1.4,3.6-1.4,4.9,0c0.7,0.7,1,1.5,1,2.5
		s-0.4,1.8-1,2.5l-2.5,2.5L1079,661.5z M1081.5,660.1c0.6,0,1.1-0.5,1.1-1.1s-0.5-1.1-1.1-1.1c-0.6,0-1.1,0.5-1.1,1.1
		S1080.9,660.1,1081.5,660.1L1081.5,660.1z M1081.5,660.1"/>
	<path style="&st3;" d="M1082,730.5c-0.7-0.7-1-1.5-1-2.5c0-0.9,0.4-1.8,1-2.5c1.4-1.4,3.6-1.4,4.9,0c0.7,0.7,1,1.5,1,2.5
		s-0.4,1.8-1,2.5l-2.5,2.5L1082,730.5z M1084.5,729.1c0.6,0,1.1-0.5,1.1-1.1s-0.5-1.1-1.1-1.1c-0.6,0-1.1,0.5-1.1,1.1
		S1083.9,729.1,1084.5,729.1L1084.5,729.1z M1084.5,729.1"/>
	<path style="&st2;" d="M1000,746.5c-0.7-0.7-1-1.5-1-2.5c0-0.9,0.4-1.8,1-2.5c1.4-1.4,3.6-1.4,4.9,0c0.7,0.7,1,1.5,1,2.5
		s-0.4,1.8-1,2.5l-2.5,2.5L1000,746.5z M1002.5,745.1c0.6,0,1.1-0.5,1.1-1.1s-0.5-1.1-1.1-1.1c-0.6,0-1,0.5-1,1.1
		S1001.9,745.1,1002.5,745.1L1002.5,745.1z M1002.5,745.1"/>
	<path style="&st2;" d="M912,774.5c-0.7-0.7-1-1.5-1-2.5c0-0.9,0.4-1.8,1-2.5c1.4-1.4,3.6-1.4,4.9,0c0.7,0.7,1,1.5,1,2.5
		s-0.4,1.8-1,2.5l-2.5,2.5L912,774.5z M914.5,773.1c0.6,0,1.1-0.5,1.1-1.1s-0.5-1.1-1.1-1.1c-0.6,0-1,0.5-1,1.1
		S913.9,773.1,914.5,773.1L914.5,773.1z M914.5,773.1"/>
	<path style="&st3;" d="M811,794.5c-0.7-0.7-1-1.5-1-2.5c0-0.9,0.4-1.8,1-2.5c1.4-1.4,3.6-1.4,4.9,0c0.7,0.7,1,1.5,1,2.5
		s-0.4,1.8-1,2.5l-2.5,2.5L811,794.5z M813.5,793.1c0.6,0,1.1-0.5,1.1-1.1s-0.5-1.1-1.1-1.1c-0.6,0-1,0.5-1,1.1
		S812.9,793.1,813.5,793.1L813.5,793.1z M813.5,793.1"/>
	<path style="&st3;" d="M803,721.5c-0.7-0.7-1-1.5-1-2.5c0-0.9,0.4-1.8,1-2.5c1.4-1.4,3.6-1.4,4.9,0c0.7,0.7,1,1.5,1,2.5
		s-0.4,1.8-1,2.5l-2.5,2.5L803,721.5z M805.5,720.1c0.6,0,1.1-0.5,1.1-1.1s-0.5-1.1-1.1-1.1c-0.6,0-1,0.5-1,1.1
		S804.9,720.1,805.5,720.1L805.5,720.1z M805.5,720.1"/>
	<path style="&st3;" d="M778,629.5c-0.7-0.7-1-1.5-1-2.5c0-0.9,0.4-1.8,1-2.5c1.4-1.4,3.6-1.4,4.9,0c0.7,0.7,1,1.5,1,2.5
		s-0.4,1.8-1,2.5l-2.5,2.5L778,629.5z M780.5,628.1c0.6,0,1.1-0.5,1.1-1.1s-0.5-1.1-1.1-1.1c-0.6,0-1,0.5-1,1.1
		S779.9,628.1,780.5,628.1L780.5,628.1z M780.5,628.1"/>
	<path style="&st3;" d="M784,661.5c-0.7-0.7-1-1.5-1-2.5c0-0.9,0.4-1.8,1-2.5c1.4-1.4,3.6-1.4,4.9,0c0.7,0.7,1,1.5,1,2.5
		s-0.4,1.8-1,2.5l-2.5,2.5L784,661.5z M786.5,660.1c0.6,0,1.1-0.5,1.1-1.1s-0.5-1.1-1.1-1.1c-0.6,0-1,0.5-1,1.1
		S785.9,660.1,786.5,660.1L786.5,660.1z M786.5,660.1"/>
	<path style="&st3;" d="M807,627.5c-0.7-0.7-1-1.5-1-2.5c0-0.9,0.4-1.8,1-2.5c1.4-1.4,3.6-1.4,4.9,0c0.7,0.7,1,1.5,1,2.5
		s-0.4,1.8-1,2.5l-2.5,2.5L807,627.5z M809.5,626.1c0.6,0,1.1-0.5,1.1-1.1s-0.5-1.1-1.1-1.1c-0.6,0-1,0.5-1,1.1
		S808.9,626.1,809.5,626.1L809.5,626.1z M809.5,626.1"/>
	<path style="&st3;" d="M738,659.5c-0.7-0.7-1-1.5-1-2.5c0-0.9,0.4-1.8,1-2.5c1.4-1.4,3.6-1.4,4.9,0c0.7,0.7,1,1.5,1,2.5
		s-0.4,1.8-1,2.5l-2.5,2.5L738,659.5z M740.5,658.1c0.6,0,1.1-0.5,1.1-1.1s-0.5-1.1-1.1-1.1c-0.6,0-1,0.5-1,1.1
		S739.9,658.1,740.5,658.1L740.5,658.1z M740.5,658.1"/>
	<path style="&st3;" d="M700,662.5c-0.7-0.7-1-1.5-1-2.5c0-0.9,0.4-1.8,1-2.5c1.4-1.4,3.6-1.4,4.9,0c0.7,0.7,1,1.5,1,2.5
		s-0.4,1.8-1,2.5l-2.5,2.5L700,662.5z M702.5,661.1c0.6,0,1.1-0.5,1.1-1.1s-0.5-1.1-1.1-1.1c-0.6,0-1,0.5-1,1.1
		S701.9,661.1,702.5,661.1L702.5,661.1z M702.5,661.1"/>
	<path style="&st3;" d="M927,547.5c-0.7-0.7-1-1.5-1-2.5c0-0.9,0.4-1.8,1-2.5c1.4-1.4,3.6-1.4,4.9,0c0.7,0.7,1,1.5,1,2.5
		s-0.4,1.8-1,2.5l-2.5,2.5L927,547.5z M929.5,546.1c0.6,0,1.1-0.5,1.1-1.1s-0.5-1.1-1.1-1.1c-0.6,0-1,0.5-1,1.1
		S928.9,546.1,929.5,546.1L929.5,546.1z M929.5,546.1"/>
	<path style="&st3;" d="M853,577.5c-0.7-0.7-1-1.5-1-2.5c0-0.9,0.4-1.8,1-2.5c1.4-1.4,3.6-1.4,4.9,0c0.7,0.7,1,1.5,1,2.5
		s-0.4,1.8-1,2.5l-2.5,2.5L853,577.5z M855.5,576.1c0.6,0,1.1-0.5,1.1-1.1s-0.5-1.1-1.1-1.1c-0.6,0-1,0.5-1,1.1
		S854.9,576.1,855.5,576.1L855.5,576.1z M855.5,576.1"/>
	<path style="&st3;" d="M904,569.5c-0.7-0.7-1-1.5-1-2.5c0-0.9,0.4-1.8,1-2.5c1.4-1.4,3.6-1.4,4.9,0c0.7,0.7,1,1.5,1,2.5
		s-0.4,1.8-1,2.5l-2.5,2.5L904,569.5z M906.5,568.1c0.6,0,1.1-0.5,1.1-1.1s-0.5-1.1-1.1-1.1c-0.6,0-1,0.5-1,1.1
		S905.9,568.1,906.5,568.1L906.5,568.1z M906.5,568.1"/>
	<path style="&st3;" d="M891,552.5c-0.7-0.7-1-1.5-1-2.5c0-0.9,0.4-1.8,1-2.5c1.4-1.4,3.6-1.4,4.9,0c0.7,0.7,1,1.5,1,2.5
		s-0.4,1.8-1,2.5l-2.5,2.5L891,552.5z M893.5,551.1c0.6,0,1.1-0.5,1.1-1.1s-0.5-1.1-1.1-1.1c-0.6,0-1,0.5-1,1.1
		S892.9,551.1,893.5,551.1L893.5,551.1z M893.5,551.1"/>
	<path style="&st2;" d="M853,544.5c-0.7-0.7-1-1.5-1-2.5c0-0.9,0.4-1.8,1-2.5c1.4-1.4,3.6-1.4,4.9,0c0.7,0.7,1,1.5,1,2.5
		s-0.4,1.8-1,2.5l-2.5,2.5L853,544.5z M855.5,543.1c0.6,0,1.1-0.5,1.1-1.1s-0.5-1.1-1.1-1.1c-0.6,0-1,0.5-1,1.1
		S854.9,543.1,855.5,543.1L855.5,543.1z M855.5,543.1"/>
	<path style="&st3;" d="M880,530.5c-0.7-0.7-1-1.5-1-2.5c0-0.9,0.4-1.8,1-2.5c1.4-1.4,3.6-1.4,4.9,0c0.7,0.7,1,1.5,1,2.5
		s-0.4,1.8-1,2.5l-2.5,2.5L880,530.5z M882.5,529.1c0.6,0,1.1-0.5,1.1-1.1s-0.5-1.1-1.1-1.1c-0.6,0-1,0.5-1,1.1
		S881.9,529.1,882.5,529.1L882.5,529.1z M882.5,529.1"/>
	<path style="&st3;" d="M984,532.5c-0.7-0.7-1-1.5-1-2.5c0-0.9,0.4-1.8,1-2.5c1.4-1.4,3.6-1.4,4.9,0c0.7,0.7,1,1.5,1,2.5
		s-0.4,1.8-1,2.5l-2.5,2.5L984,532.5z M986.5,531.1c0.6,0,1.1-0.5,1.1-1.1s-0.5-1.1-1.1-1.1c-0.6,0-1,0.5-1,1.1
		S985.9,531.1,986.5,531.1L986.5,531.1z M986.5,531.1"/>
	<path style="&st3;" d="M1031,525.5c-0.7-0.7-1-1.5-1-2.5c0-0.9,0.4-1.8,1-2.5c1.4-1.4,3.6-1.4,4.9,0c0.7,0.7,1,1.5,1,2.5
		s-0.4,1.8-1,2.5l-2.5,2.5L1031,525.5z M1033.5,524.1c0.6,0,1.1-0.5,1.1-1.1s-0.5-1.1-1.1-1.1c-0.6,0-1.1,0.5-1.1,1.1
		S1032.9,524.1,1033.5,524.1L1033.5,524.1z M1033.5,524.1"/>
	<path style="&st3;" d="M795,578.5c-0.7-0.7-1-1.5-1-2.5c0-0.9,0.4-1.8,1-2.5c1.4-1.4,3.6-1.4,4.9,0c0.7,0.7,1,1.5,1,2.5
		s-0.4,1.8-1,2.5l-2.5,2.5L795,578.5z M797.5,577.1c0.6,0,1.1-0.5,1.1-1.1s-0.5-1.1-1.1-1.1c-0.6,0-1,0.5-1,1.1
		S796.9,577.1,797.5,577.1L797.5,577.1z M797.5,577.1"/>
	<path style="&st3;" d="M797,548.5c-0.7-0.7-1-1.5-1-2.5c0-0.9,0.4-1.8,1-2.5c1.4-1.4,3.6-1.4,4.9,0c0.7,0.7,1,1.5,1,2.5
		s-0.4,1.8-1,2.5l-2.5,2.5L797,548.5z M799.5,547.1c0.6,0,1.1-0.5,1.1-1.1s-0.5-1.1-1.1-1.1c-0.6,0-1,0.5-1,1.1
		S798.9,547.1,799.5,547.1L799.5,547.1z M799.5,547.1"/>
	<path style="&st3;" d="M737,582.5c-0.7-0.7-1-1.5-1-2.5c0-0.9,0.4-1.8,1-2.5c1.4-1.4,3.6-1.4,4.9,0c0.7,0.7,1,1.5,1,2.5
		s-0.4,1.8-1,2.5l-2.5,2.5L737,582.5z M739.5,581.1c0.6,0,1.1-0.5,1.1-1.1s-0.5-1.1-1.1-1.1c-0.6,0-1,0.5-1,1.1
		S738.9,581.1,739.5,581.1L739.5,581.1z M739.5,581.1"/>
	<path style="&st3;" d="M694,593.5c-0.7-0.7-1-1.5-1-2.5c0-0.9,0.4-1.8,1-2.5c1.4-1.4,3.6-1.4,4.9,0c0.7,0.7,1,1.5,1,2.5
		s-0.4,1.8-1,2.5l-2.5,2.5L694,593.5z M696.5,592.1c0.6,0,1.1-0.5,1.1-1.1s-0.5-1.1-1.1-1.1c-0.6,0-1,0.5-1,1.1
		S695.9,592.1,696.5,592.1L696.5,592.1z M696.5,592.1"/>
	<path style="&st3;" d="M709,566.5c-0.7-0.7-1-1.5-1-2.5c0-0.9,0.4-1.8,1-2.5c1.4-1.4,3.6-1.4,4.9,0c0.7,0.7,1,1.5,1,2.5
		s-0.4,1.8-1,2.5l-2.5,2.5L709,566.5z M711.5,565.1c0.6,0,1.1-0.5,1.1-1.1s-0.5-1.1-1.1-1.1c-0.6,0-1,0.5-1,1.1
		S710.9,565.1,711.5,565.1L711.5,565.1z M711.5,565.1"/>
	<path style="&st2;" d="M727,554.5c-0.7-0.7-1-1.5-1-2.5c0-0.9,0.4-1.8,1-2.5c1.4-1.4,3.6-1.4,4.9,0c0.7,0.7,1,1.5,1,2.5
		s-0.4,1.8-1,2.5l-2.5,2.5L727,554.5z M729.5,553.1c0.6,0,1.1-0.5,1.1-1.1s-0.5-1.1-1.1-1.1c-0.6,0-1,0.5-1,1.1
		S728.9,553.1,729.5,553.1L729.5,553.1z M729.5,553.1"/>
	<path style="&st3;" d="M746,545.5c-0.7-0.7-1-1.5-1-2.5c0-0.9,0.4-1.8,1-2.5c1.4-1.4,3.6-1.4,4.9,0c0.7,0.7,1,1.5,1,2.5
		s-0.4,1.8-1,2.5l-2.5,2.5L746,545.5z M748.5,544.1c0.6,0,1.1-0.5,1.1-1.1s-0.5-1.1-1.1-1.1c-0.6,0-1,0.5-1,1.1
		S747.9,544.1,748.5,544.1L748.5,544.1z M748.5,544.1"/>
	<path style="&st3;" d="M751,512.5c-0.7-0.7-1-1.5-1-2.5c0-0.9,0.4-1.8,1-2.5c1.4-1.4,3.6-1.4,4.9,0c0.7,0.7,1,1.5,1,2.5
		c0,0.9-0.4,1.8-1,2.5l-2.5,2.5L751,512.5z M753.5,511.1c0.6,0,1.1-0.5,1.1-1.1c0-0.6-0.5-1.1-1.1-1.1c-0.6,0-1,0.5-1,1.1
		C752.4,510.7,752.9,511.1,753.5,511.1L753.5,511.1z M753.5,511.1"/>
	<path style="&st3;" d="M780,521.5c-0.7-0.7-1-1.5-1-2.5c0-0.9,0.4-1.8,1-2.5c1.4-1.4,3.6-1.4,4.9,0c0.7,0.7,1,1.5,1,2.5
		s-0.4,1.8-1,2.5l-2.5,2.5L780,521.5z M782.5,520.1c0.6,0,1.1-0.5,1.1-1.1s-0.5-1.1-1.1-1.1c-0.6,0-1,0.5-1,1.1
		S781.9,520.1,782.5,520.1L782.5,520.1z M782.5,520.1"/>
	<path style="&st3;" d="M797,516.5c-0.7-0.7-1-1.5-1-2.5c0-0.9,0.4-1.8,1-2.5c1.4-1.4,3.6-1.4,4.9,0c0.7,0.7,1,1.5,1,2.5
		s-0.4,1.8-1,2.5l-2.5,2.5L797,516.5z M799.5,515.1c0.6,0,1.1-0.5,1.1-1.1s-0.5-1.1-1.1-1.1c-0.6,0-1,0.5-1,1.1
		S798.9,515.1,799.5,515.1L799.5,515.1z M799.5,515.1"/>
	<path style="&st3;" d="M714,534.5c-0.7-0.7-1-1.5-1-2.5c0-0.9,0.4-1.8,1-2.5c1.4-1.4,3.6-1.4,4.9,0c0.7,0.7,1,1.5,1,2.5
		s-0.4,1.8-1,2.5l-2.5,2.5L714,534.5z M716.5,533.1c0.6,0,1.1-0.5,1.1-1.1s-0.5-1.1-1.1-1.1c-0.6,0-1,0.5-1,1.1
		S715.9,533.1,716.5,533.1L716.5,533.1z M716.5,533.1"/>
	<path style="&st3;" d="M695,523.5c-0.7-0.7-1-1.5-1-2.5c0-0.9,0.4-1.8,1-2.5c1.4-1.4,3.6-1.4,4.9,0c0.7,0.7,1,1.5,1,2.5
		s-0.4,1.8-1,2.5l-2.5,2.5L695,523.5z M697.5,522.1c0.6,0,1.1-0.5,1.1-1.1s-0.5-1.1-1.1-1.1c-0.6,0-1,0.5-1,1.1
		S696.9,522.1,697.5,522.1L697.5,522.1z M697.5,522.1"/>
	<path style="&st3;" d="M830,504.5c-0.7-0.7-1-1.5-1-2.5c0-0.9,0.4-1.8,1-2.5c1.4-1.4,3.6-1.4,4.9,0c0.7,0.7,1,1.5,1,2.5
		c0,0.9-0.4,1.8-1,2.5l-2.5,2.5L830,504.5z M832.5,503.1c0.6,0,1.1-0.5,1.1-1.1c0-0.6-0.5-1.1-1.1-1.1c-0.6,0-1,0.5-1,1.1
		C831.4,502.7,831.9,503.1,832.5,503.1L832.5,503.1z M832.5,503.1"/>
	<path style="&st3;" d="M871,496.5c-0.7-0.7-1-1.5-1-2.5c0-0.9,0.4-1.8,1-2.5c1.4-1.4,3.6-1.4,4.9,0c0.7,0.7,1,1.5,1,2.5
		c0,0.9-0.4,1.8-1,2.5l-2.5,2.5L871,496.5z M873.5,495.1c0.6,0,1.1-0.5,1.1-1.1c0-0.6-0.5-1.1-1.1-1.1c-0.6,0-1,0.5-1,1.1
		C872.4,494.7,872.9,495.1,873.5,495.1L873.5,495.1z M873.5,495.1"/>
	<path style="&st3;" d="M862,461.5c-0.7-0.7-1-1.5-1-2.5c0-0.9,0.4-1.8,1-2.5c1.4-1.4,3.6-1.4,4.9,0c0.7,0.7,1,1.5,1,2.5
		c0,0.9-0.4,1.8-1,2.5l-2.5,2.5L862,461.5z M864.5,460.1c0.6,0,1.1-0.5,1.1-1.1c0-0.6-0.5-1.1-1.1-1.1c-0.6,0-1,0.5-1,1.1
		C863.4,459.7,863.9,460.1,864.5,460.1L864.5,460.1z M864.5,460.1"/>
	<path style="&st2;" d="M825,468.5c-0.7-0.7-1-1.5-1-2.5c0-0.9,0.4-1.8,1-2.5c1.4-1.4,3.6-1.4,4.9,0c0.7,0.7,1,1.5,1,2.5
		c0,0.9-0.4,1.8-1,2.5l-2.5,2.5L825,468.5z M827.5,467.1c0.6,0,1.1-0.5,1.1-1.1c0-0.6-0.5-1.1-1.1-1.1c-0.6,0-1,0.5-1,1.1
		C826.4,466.7,826.9,467.1,827.5,467.1L827.5,467.1z M827.5,467.1"/>
	<path style="&st2;" d="M762,484.5c-0.7-0.7-1-1.5-1-2.5c0-0.9,0.4-1.8,1-2.5c1.4-1.4,3.6-1.4,4.9,0c0.7,0.7,1,1.5,1,2.5
		c0,0.9-0.4,1.8-1,2.5l-2.5,2.5L762,484.5z M764.5,483.1c0.6,0,1.1-0.5,1.1-1.1c0-0.6-0.5-1.1-1.1-1.1c-0.6,0-1,0.5-1,1.1
		C763.4,482.7,763.9,483.1,764.5,483.1L764.5,483.1z M764.5,483.1"/>
	<path style="&st3;" d="M717,485.5c-0.7-0.7-1-1.5-1-2.5c0-0.9,0.4-1.8,1-2.5c1.4-1.4,3.6-1.4,4.9,0c0.7,0.7,1,1.5,1,2.5
		c0,0.9-0.4,1.8-1,2.5l-2.5,2.5L717,485.5z M719.5,484.1c0.6,0,1.1-0.5,1.1-1.1c0-0.6-0.5-1.1-1.1-1.1c-0.6,0-1,0.5-1,1.1
		C718.4,483.7,718.9,484.1,719.5,484.1L719.5,484.1z M719.5,484.1"/>
	<path style="&st3;" d="M693,489.5c-0.7-0.7-1-1.5-1-2.5c0-0.9,0.4-1.8,1-2.5c1.4-1.4,3.6-1.4,4.9,0c0.7,0.7,1,1.5,1,2.5
		c0,0.9-0.4,1.8-1,2.5l-2.5,2.5L693,489.5z M695.5,488.1c0.6,0,1.1-0.5,1.1-1.1c0-0.6-0.5-1.1-1.1-1.1c-0.6,0-1,0.5-1,1.1
		C694.4,487.7,694.9,488.1,695.5,488.1L695.5,488.1z M695.5,488.1"/>
	<path style="&st3;" d="M905,469.5c-0.7-0.7-1-1.5-1-2.5c0-0.9,0.4-1.8,1-2.5c1.4-1.4,3.6-1.4,4.9,0c0.7,0.7,1,1.5,1,2.5
		c0,0.9-0.4,1.8-1,2.5l-2.5,2.5L905,469.5z M907.5,468.1c0.6,0,1.1-0.5,1.1-1.1c0-0.6-0.5-1.1-1.1-1.1c-0.6,0-1,0.5-1,1.1
		C906.4,467.7,906.9,468.1,907.5,468.1L907.5,468.1z M907.5,468.1"/>
	<path style="&st3;" d="M944,461.5c-0.7-0.7-1-1.5-1-2.5c0-0.9,0.4-1.8,1-2.5c1.4-1.4,3.6-1.4,4.9,0c0.7,0.7,1,1.5,1,2.5
		c0,0.9-0.4,1.8-1,2.5l-2.5,2.5L944,461.5z M946.5,460.1c0.6,0,1.1-0.5,1.1-1.1c0-0.6-0.5-1.1-1.1-1.1c-0.6,0-1,0.5-1,1.1
		C945.4,459.7,945.9,460.1,946.5,460.1L946.5,460.1z M946.5,460.1"/>
	<path style="&st3;" d="M978,450.5c-0.7-0.7-1-1.5-1-2.5c0-0.9,0.4-1.8,1-2.5c1.4-1.4,3.6-1.4,4.9,0c0.7,0.7,1,1.5,1,2.5
		c0,0.9-0.4,1.8-1,2.5l-2.5,2.5L978,450.5z M980.5,449.1c0.6,0,1.1-0.5,1.1-1.1c0-0.6-0.5-1.1-1.1-1.1c-0.6,0-1,0.5-1,1.1
		C979.4,448.7,979.9,449.1,980.5,449.1L980.5,449.1z M980.5,449.1"/>
	<path style="&st3;" d="M920,395.5c-0.7-0.7-1-1.5-1-2.5c0-0.9,0.4-1.8,1-2.5c1.4-1.4,3.6-1.4,4.9,0c0.7,0.7,1,1.5,1,2.5
		c0,0.9-0.4,1.8-1,2.5l-2.5,2.5L920,395.5z M922.5,394.1c0.6,0,1.1-0.5,1.1-1.1c0-0.6-0.5-1.1-1.1-1.1c-0.6,0-1,0.5-1,1.1
		C921.4,393.7,921.9,394.1,922.5,394.1L922.5,394.1z M922.5,394.1"/>
	<path style="&st3;" d="M898,416.5c-0.7-0.7-1-1.5-1-2.5c0-0.9,0.4-1.8,1-2.5c1.4-1.4,3.6-1.4,4.9,0c0.7,0.7,1,1.5,1,2.5
		c0,0.9-0.4,1.8-1,2.5l-2.5,2.5L898,416.5z M900.5,415.1c0.6,0,1.1-0.5,1.1-1.1c0-0.6-0.5-1.1-1.1-1.1c-0.6,0-1,0.5-1,1.1
		C899.4,414.7,899.9,415.1,900.5,415.1L900.5,415.1z M900.5,415.1"/>
	<path style="&st3;" d="M898,403.5c-0.7-0.7-1-1.5-1-2.5c0-0.9,0.4-1.8,1-2.5c1.4-1.4,3.6-1.4,4.9,0c0.7,0.7,1,1.5,1,2.5
		c0,0.9-0.4,1.8-1,2.5l-2.5,2.5L898,403.5z M900.5,402.1c0.6,0,1.1-0.5,1.1-1.1c0-0.6-0.5-1.1-1.1-1.1c-0.6,0-1,0.5-1,1.1
		C899.4,401.7,899.9,402.1,900.5,402.1L900.5,402.1z M900.5,402.1"/>
	<path style="&st3;" d="M843,420.5c-0.7-0.7-1-1.5-1-2.5c0-0.9,0.4-1.8,1-2.5c1.4-1.4,3.6-1.4,4.9,0c0.7,0.7,1,1.5,1,2.5
		c0,0.9-0.4,1.8-1,2.5l-2.5,2.5L843,420.5z M845.5,419.1c0.6,0,1.1-0.5,1.1-1.1c0-0.6-0.5-1.1-1.1-1.1c-0.6,0-1,0.5-1,1.1
		C844.4,418.7,844.9,419.1,845.5,419.1L845.5,419.1z M845.5,419.1"/>
	<path style="&st2;" d="M834,393.5c-0.7-0.7-1-1.5-1-2.5c0-0.9,0.4-1.8,1-2.5c1.4-1.4,3.6-1.4,4.9,0c0.7,0.7,1,1.5,1,2.5
		c0,0.9-0.4,1.8-1,2.5l-2.5,2.5L834,393.5z M836.5,392.1c0.6,0,1.1-0.5,1.1-1.1c0-0.6-0.5-1.1-1.1-1.1c-0.6,0-1,0.5-1,1.1
		C835.4,391.7,835.9,392.1,836.5,392.1L836.5,392.1z M836.5,392.1"/>
	<path style="&st2;" d="M775,430.5c-0.7-0.7-1-1.5-1-2.5c0-0.9,0.4-1.8,1-2.5c1.4-1.4,3.6-1.4,4.9,0c0.7,0.7,1,1.5,1,2.5
		c0,0.9-0.4,1.8-1,2.5l-2.5,2.5L775,430.5z M777.5,429.1c0.6,0,1.1-0.5,1.1-1.1c0-0.6-0.5-1.1-1.1-1.1c-0.6,0-1,0.5-1,1.1
		C776.4,428.7,776.9,429.1,777.5,429.1L777.5,429.1z M777.5,429.1"/>
	<path style="&st3;" d="M776,407.5c-0.7-0.7-1-1.5-1-2.5c0-0.9,0.4-1.8,1-2.5c1.4-1.4,3.6-1.4,4.9,0c0.7,0.7,1,1.5,1,2.5
		c0,0.9-0.4,1.8-1,2.5l-2.5,2.5L776,407.5z M778.5,406.1c0.6,0,1.1-0.5,1.1-1.1c0-0.6-0.5-1.1-1.1-1.1c-0.6,0-1,0.5-1,1.1
		C777.4,405.7,777.9,406.1,778.5,406.1L778.5,406.1z M778.5,406.1"/>
	<path style="&st3;" d="M732,441.5c-0.7-0.7-1-1.5-1-2.5c0-0.9,0.4-1.8,1-2.5c1.4-1.4,3.6-1.4,4.9,0c0.7,0.7,1,1.5,1,2.5
		c0,0.9-0.4,1.8-1,2.5l-2.5,2.5L732,441.5z M734.5,440.1c0.6,0,1.1-0.5,1.1-1.1c0-0.6-0.5-1.1-1.1-1.1c-0.6,0-1,0.5-1,1.1
		C733.4,439.7,733.9,440.1,734.5,440.1L734.5,440.1z M734.5,440.1"/>
	<path style="&st3;" d="M711,441.5c-0.7-0.7-1-1.5-1-2.5c0-0.9,0.4-1.8,1-2.5c1.4-1.4,3.6-1.4,4.9,0c0.7,0.7,1,1.5,1,2.5
		c0,0.9-0.4,1.8-1,2.5l-2.5,2.5L711,441.5z M713.5,440.1c0.6,0,1.1-0.5,1.1-1.1c0-0.6-0.5-1.1-1.1-1.1c-0.6,0-1,0.5-1,1.1
		C712.4,439.7,712.9,440.1,713.5,440.1L713.5,440.1z M713.5,440.1"/>
	<path style="&st3;" d="M696,436.5c-0.7-0.7-1-1.5-1-2.5c0-0.9,0.4-1.8,1-2.5c1.4-1.4,3.6-1.4,4.9,0c0.7,0.7,1,1.5,1,2.5
		c0,0.9-0.4,1.8-1,2.5l-2.5,2.5L696,436.5z M698.5,435.1c0.6,0,1.1-0.5,1.1-1.1c0-0.6-0.5-1.1-1.1-1.1c-0.6,0-1,0.5-1,1.1
		C697.4,434.7,697.9,435.1,698.5,435.1L698.5,435.1z M698.5,435.1"/>
	<path style="&st3;" d="M699,443.5c-0.7-0.7-1-1.5-1-2.5c0-0.9,0.4-1.8,1-2.5c1.4-1.4,3.6-1.4,4.9,0c0.7,0.7,1,1.5,1,2.5
		c0,0.9-0.4,1.8-1,2.5l-2.5,2.5L699,443.5z M701.5,442.1c0.6,0,1.1-0.5,1.1-1.1c0-0.6-0.5-1.1-1.1-1.1c-0.6,0-1,0.5-1,1.1
		C700.4,441.7,700.9,442.1,701.5,442.1L701.5,442.1z M701.5,442.1"/>
	<path style="&st3;" d="M680,439.5c-0.7-0.7-1-1.5-1-2.5c0-0.9,0.4-1.8,1-2.5c1.4-1.4,3.6-1.4,4.9,0c0.7,0.7,1,1.5,1,2.5
		c0,0.9-0.4,1.8-1,2.5l-2.5,2.5L680,439.5z M682.5,438.1c0.6,0,1.1-0.5,1.1-1.1c0-0.6-0.5-1.1-1.1-1.1c-0.6,0-1,0.5-1,1.1
		C681.4,437.7,681.9,438.1,682.5,438.1L682.5,438.1z M682.5,438.1"/>
	<path style="&st3;" d="M687,436.5c-0.7-0.7-1-1.5-1-2.5c0-0.9,0.4-1.8,1-2.5c1.4-1.4,3.6-1.4,4.9,0c0.7,0.7,1,1.5,1,2.5
		c0,0.9-0.4,1.8-1,2.5l-2.5,2.5L687,436.5z M689.5,435.1c0.6,0,1.1-0.5,1.1-1.1c0-0.6-0.5-1.1-1.1-1.1c-0.6,0-1,0.5-1,1.1
		C688.4,434.7,688.9,435.1,689.5,435.1L689.5,435.1z M689.5,435.1"/>
	<path style="&st3;" d="M680,450.5c-0.7-0.7-1-1.5-1-2.5c0-0.9,0.4-1.8,1-2.5c1.4-1.4,3.6-1.4,4.9,0c0.7,0.7,1,1.5,1,2.5
		c0,0.9-0.4,1.8-1,2.5l-2.5,2.5L680,450.5z M682.5,449.1c0.6,0,1.1-0.5,1.1-1.1c0-0.6-0.5-1.1-1.1-1.1c-0.6,0-1,0.5-1,1.1
		C681.4,448.7,681.9,449.1,682.5,449.1L682.5,449.1z M682.5,449.1"/>
	<path style="&st3;" d="M707,414.5c-0.7-0.7-1-1.5-1-2.5c0-0.9,0.4-1.8,1-2.5c1.4-1.4,3.6-1.4,4.9,0c0.7,0.7,1,1.5,1,2.5
		c0,0.9-0.4,1.8-1,2.5l-2.5,2.5L707,414.5z M709.5,413.1c0.6,0,1.1-0.5,1.1-1.1c0-0.6-0.5-1.1-1.1-1.1c-0.6,0-1,0.5-1,1.1
		C708.4,412.7,708.9,413.1,709.5,413.1L709.5,413.1z M709.5,413.1"/>
	<path style="&st3;" d="M678,414.5c-0.7-0.7-1-1.5-1-2.5c0-0.9,0.4-1.8,1-2.5c1.4-1.4,3.6-1.4,4.9,0c0.7,0.7,1,1.5,1,2.5
		c0,0.9-0.4,1.8-1,2.5l-2.5,2.5L678,414.5z M680.5,413.1c0.6,0,1.1-0.5,1.1-1.1c0-0.6-0.5-1.1-1.1-1.1c-0.6,0-1,0.5-1,1.1
		C679.4,412.7,679.9,413.1,680.5,413.1L680.5,413.1z M680.5,413.1"/>
	<path style="&st3;" d="M726,395.5c-0.7-0.7-1-1.5-1-2.5c0-0.9,0.4-1.8,1-2.5c1.4-1.4,3.6-1.4,4.9,0c0.7,0.7,1,1.5,1,2.5
		c0,0.9-0.4,1.8-1,2.5l-2.5,2.5L726,395.5z M728.5,394.1c0.6,0,1.1-0.5,1.1-1.1c0-0.6-0.5-1.1-1.1-1.1c-0.6,0-1,0.5-1,1.1
		C727.4,393.7,727.9,394.1,728.5,394.1L728.5,394.1z M728.5,394.1"/>
	<path style="&st2;" d="M723,417.5c-0.7-0.7-1-1.5-1-2.5c0-0.9,0.4-1.8,1-2.5c1.4-1.4,3.6-1.4,4.9,0c0.7,0.7,1,1.5,1,2.5
		c0,0.9-0.4,1.8-1,2.5l-2.5,2.5L723,417.5z M725.5,416.1c0.6,0,1.1-0.5,1.1-1.1c0-0.6-0.5-1.1-1.1-1.1c-0.6,0-1,0.5-1,1.1
		C724.4,415.7,724.9,416.1,725.5,416.1L725.5,416.1z M725.5,416.1"/>
	<path style="&st3;" d="M732,410.5c-0.7-0.7-1-1.5-1-2.5c0-0.9,0.4-1.8,1-2.5c1.4-1.4,3.6-1.4,4.9,0c0.7,0.7,1,1.5,1,2.5
		c0,0.9-0.4,1.8-1,2.5l-2.5,2.5L732,410.5z M734.5,409.1c0.6,0,1.1-0.5,1.1-1.1c0-0.6-0.5-1.1-1.1-1.1c-0.6,0-1,0.5-1,1.1
		C733.4,408.7,733.9,409.1,734.5,409.1L734.5,409.1z M734.5,409.1"/>
	<path style="&st3;" d="M691,387.5c-0.7-0.7-1-1.5-1-2.5c0-0.9,0.4-1.8,1-2.5c1.4-1.4,3.6-1.4,4.9,0c0.7,0.7,1,1.5,1,2.5
		c0,0.9-0.4,1.8-1,2.5l-2.5,2.5L691,387.5z M693.5,386.1c0.6,0,1.1-0.5,1.1-1.1c0-0.6-0.5-1.1-1.1-1.1c-0.6,0-1,0.5-1,1.1
		C692.4,385.7,692.9,386.1,693.5,386.1L693.5,386.1z M693.5,386.1"/>
	<path style="&st3;" d="M671,382.5c-0.7-0.7-1-1.5-1-2.5c0-0.9,0.4-1.8,1-2.5c1.4-1.4,3.6-1.4,4.9,0c0.7,0.7,1,1.5,1,2.5
		c0,0.9-0.4,1.8-1,2.5l-2.5,2.5L671,382.5z M673.5,381.1c0.6,0,1.1-0.5,1.1-1.1c0-0.6-0.5-1.1-1.1-1.1c-0.6,0-1,0.5-1,1.1
		C672.4,380.7,672.9,381.1,673.5,381.1L673.5,381.1z M673.5,381.1"/>
	<path style="&st3;" d="M675,399.5c-0.7-0.7-1-1.5-1-2.5c0-0.9,0.4-1.8,1-2.5c1.4-1.4,3.6-1.4,4.9,0c0.7,0.7,1,1.5,1,2.5
		c0,0.9-0.4,1.8-1,2.5l-2.5,2.5L675,399.5z M677.5,398.1c0.6,0,1.1-0.5,1.1-1.1c0-0.6-0.5-1.1-1.1-1.1c-0.6,0-1,0.5-1,1.1
		C676.4,397.7,676.9,398.1,677.5,398.1L677.5,398.1z M677.5,398.1"/>
	<path style="&st3;" d="M720,374.5c-0.7-0.7-1-1.5-1-2.5c0-0.9,0.4-1.8,1-2.5c1.4-1.4,3.6-1.4,4.9,0c0.7,0.7,1,1.5,1,2.5
		c0,0.9-0.4,1.8-1,2.5l-2.5,2.5L720,374.5z M722.5,373.1c0.6,0,1.1-0.5,1.1-1.1c0-0.6-0.5-1.1-1.1-1.1c-0.6,0-1,0.5-1,1.1
		C721.4,372.7,721.9,373.1,722.5,373.1L722.5,373.1z M722.5,373.1"/>
	<path style="&st3;" d="M722,356.5c-0.7-0.7-1-1.5-1-2.5c0-0.9,0.4-1.8,1-2.5c1.4-1.4,3.6-1.4,4.9,0c0.7,0.7,1,1.5,1,2.5
		c0,0.9-0.4,1.8-1,2.5l-2.5,2.5L722,356.5z M724.5,355.1c0.6,0,1.1-0.5,1.1-1.1c0-0.6-0.5-1.1-1.1-1.1c-0.6,0-1,0.5-1,1.1
		C723.4,354.7,723.9,355.1,724.5,355.1L724.5,355.1z M724.5,355.1"/>
	<path style="&st3;" d="M767,351.5c-0.7-0.7-1-1.5-1-2.5c0-0.9,0.4-1.8,1-2.5c1.4-1.4,3.6-1.4,4.9,0c0.7,0.7,1,1.5,1,2.5
		c0,0.9-0.4,1.8-1,2.5l-2.5,2.5L767,351.5z M769.5,350.1c0.6,0,1.1-0.5,1.1-1.1c0-0.6-0.5-1.1-1.1-1.1c-0.6,0-1,0.5-1,1.1
		C768.4,349.7,768.9,350.1,769.5,350.1L769.5,350.1z M769.5,350.1"/>
	<path style="&st3;" d="M775,374.5c-0.7-0.7-1-1.5-1-2.5c0-0.9,0.4-1.8,1-2.5c1.4-1.4,3.6-1.4,4.9,0c0.7,0.7,1,1.5,1,2.5
		c0,0.9-0.4,1.8-1,2.5l-2.5,2.5L775,374.5z M777.5,373.1c0.6,0,1.1-0.5,1.1-1.1c0-0.6-0.5-1.1-1.1-1.1c-0.6,0-1,0.5-1,1.1
		C776.4,372.7,776.9,373.1,777.5,373.1L777.5,373.1z M777.5,373.1"/>
	<path style="&st3;" d="M754,380.5c-0.7-0.7-1-1.5-1-2.5c0-0.9,0.4-1.8,1-2.5c1.4-1.4,3.6-1.4,4.9,0c0.7,0.7,1,1.5,1,2.5
		c0,0.9-0.4,1.8-1,2.5l-2.5,2.5L754,380.5z M756.5,379.1c0.6,0,1.1-0.5,1.1-1.1c0-0.6-0.5-1.1-1.1-1.1c-0.6,0-1,0.5-1,1.1
		C755.4,378.7,755.9,379.1,756.5,379.1L756.5,379.1z M756.5,379.1"/>
	<path style="&st3;" d="M805,359.5c-0.7-0.7-1-1.5-1-2.5c0-0.9,0.4-1.8,1-2.5c1.4-1.4,3.6-1.4,4.9,0c0.7,0.7,1,1.5,1,2.5
		c0,0.9-0.4,1.8-1,2.5l-2.5,2.5L805,359.5z M807.5,358.1c0.6,0,1.1-0.5,1.1-1.1c0-0.6-0.5-1.1-1.1-1.1c-0.6,0-1,0.5-1,1.1
		C806.4,357.7,806.9,358.1,807.5,358.1L807.5,358.1z M807.5,358.1"/>
	<path style="&st3;" d="M828,338.5c-0.7-0.7-1-1.5-1-2.5c0-0.9,0.4-1.8,1-2.5c1.4-1.4,3.6-1.4,4.9,0c0.7,0.7,1,1.5,1,2.5
		c0,0.9-0.4,1.8-1,2.5l-2.5,2.5L828,338.5z M830.5,337.1c0.6,0,1.1-0.5,1.1-1.1c0-0.6-0.5-1.1-1.1-1.1c-0.6,0-1,0.5-1,1.1
		C829.4,336.7,829.9,337.1,830.5,337.1L830.5,337.1z M830.5,337.1"/>
	<path style="&st3;" d="M843,349.5c-0.7-0.7-1-1.5-1-2.5c0-0.9,0.4-1.8,1-2.5c1.4-1.4,3.6-1.4,4.9,0c0.7,0.7,1,1.5,1,2.5
		c0,0.9-0.4,1.8-1,2.5l-2.5,2.5L843,349.5z M845.5,348.1c0.6,0,1.1-0.5,1.1-1.1c0-0.6-0.5-1.1-1.1-1.1c-0.6,0-1,0.5-1,1.1
		C844.4,347.7,844.9,348.1,845.5,348.1L845.5,348.1z M845.5,348.1"/>
	<path style="&st2;" d="M887,357.5c-0.7-0.7-1-1.5-1-2.5c0-0.9,0.4-1.8,1-2.5c1.4-1.4,3.6-1.4,4.9,0c0.7,0.7,1,1.5,1,2.5
		c0,0.9-0.4,1.8-1,2.5l-2.5,2.5L887,357.5z M889.5,356.1c0.6,0,1.1-0.5,1.1-1.1c0-0.6-0.5-1.1-1.1-1.1c-0.6,0-1,0.5-1,1.1
		C888.4,355.7,888.9,356.1,889.5,356.1L889.5,356.1z M889.5,356.1"/>
	<path style="&st3;" d="M905,353.5c-0.7-0.7-1-1.5-1-2.5c0-0.9,0.4-1.8,1-2.5c1.4-1.4,3.6-1.4,4.9,0c0.7,0.7,1,1.5,1,2.5
		c0,0.9-0.4,1.8-1,2.5l-2.5,2.5L905,353.5z M907.5,352.1c0.6,0,1.1-0.5,1.1-1.1c0-0.6-0.5-1.1-1.1-1.1c-0.6,0-1,0.5-1,1.1
		C906.4,351.7,906.9,352.1,907.5,352.1L907.5,352.1z M907.5,352.1"/>
	<path style="&st3;" d="M796,316.5c-0.7-0.7-1-1.5-1-2.5c0-0.9,0.4-1.8,1-2.5c1.4-1.4,3.6-1.4,4.9,0c0.7,0.7,1,1.5,1,2.5
		c0,0.9-0.4,1.8-1,2.5l-2.5,2.5L796,316.5z M798.5,315.1c0.6,0,1.1-0.5,1.1-1.1c0-0.6-0.5-1.1-1.1-1.1c-0.6,0-1,0.5-1,1.1
		C797.4,314.7,797.9,315.1,798.5,315.1L798.5,315.1z M798.5,315.1"/>
	<path style="&st3;" d="M759,318.5c-0.7-0.7-1-1.5-1-2.5c0-0.9,0.4-1.8,1-2.5c1.4-1.4,3.6-1.4,4.9,0c0.7,0.7,1,1.5,1,2.5
		c0,0.9-0.4,1.8-1,2.5l-2.5,2.5L759,318.5z M761.5,317.1c0.6,0,1.1-0.5,1.1-1.1c0-0.6-0.5-1.1-1.1-1.1c-0.6,0-1,0.5-1,1.1
		C760.4,316.7,760.9,317.1,761.5,317.1L761.5,317.1z M761.5,317.1"/>
	<path style="&st3;" d="M696,324.5c-0.7-0.7-1-1.5-1-2.5c0-0.9,0.4-1.8,1-2.5c1.4-1.4,3.6-1.4,4.9,0c0.7,0.7,1,1.5,1,2.5
		c0,0.9-0.4,1.8-1,2.5l-2.5,2.5L696,324.5z M698.5,323.1c0.6,0,1.1-0.5,1.1-1.1c0-0.6-0.5-1.1-1.1-1.1c-0.6,0-1,0.5-1,1.1
		C697.4,322.7,697.9,323.1,698.5,323.1L698.5,323.1z M698.5,323.1"/>
	<path style="&st3;" d="M739,300.5c-0.7-0.7-1-1.5-1-2.5c0-0.9,0.4-1.8,1-2.5c1.4-1.4,3.6-1.4,4.9,0c0.7,0.7,1,1.5,1,2.5
		c0,0.9-0.4,1.8-1,2.5l-2.5,2.5L739,300.5z M741.5,299.1c0.6,0,1.1-0.5,1.1-1.1c0-0.6-0.5-1.1-1.1-1.1c-0.6,0-1,0.5-1,1.1
		C740.4,298.7,740.9,299.1,741.5,299.1L741.5,299.1z M741.5,299.1"/>
	<path style="&st3;" d="M776,293.5c-0.7-0.7-1-1.5-1-2.5c0-0.9,0.4-1.8,1-2.5c1.4-1.4,3.6-1.4,4.9,0c0.7,0.7,1,1.5,1,2.5
		c0,0.9-0.4,1.8-1,2.5l-2.5,2.5L776,293.5z M778.5,292.1c0.6,0,1.1-0.5,1.1-1.1c0-0.6-0.5-1.1-1.1-1.1c-0.6,0-1,0.5-1,1.1
		C777.4,291.7,777.9,292.1,778.5,292.1L778.5,292.1z M778.5,292.1"/>
	<path style="&st3;" d="M795,289.5c-0.7-0.7-1-1.5-1-2.5c0-0.9,0.4-1.8,1-2.5c1.4-1.4,3.6-1.4,4.9,0c0.7,0.7,1,1.5,1,2.5
		c0,0.9-0.4,1.8-1,2.5l-2.5,2.5L795,289.5z M797.5,288.1c0.6,0,1.1-0.5,1.1-1.1c0-0.6-0.5-1.1-1.1-1.1c-0.6,0-1,0.5-1,1.1
		C796.4,287.7,796.9,288.1,797.5,288.1L797.5,288.1z M797.5,288.1"/>
	<path style="&st3;" d="M781,243.5c-0.7-0.7-1-1.5-1-2.5s0.4-1.8,1-2.5c1.4-1.4,3.6-1.4,4.9,0c0.7,0.7,1,1.5,1,2.5s-0.4,1.8-1,2.5
		l-2.5,2.5L781,243.5z M783.5,242.1c0.6,0,1.1-0.5,1.1-1.1c0-0.6-0.5-1.1-1.1-1.1c-0.6,0-1,0.5-1,1.1
		C782.4,241.7,782.9,242.1,783.5,242.1L783.5,242.1z M783.5,242.1"/>
	<path style="&st3;" d="M730,255.5c-0.7-0.7-1-1.5-1-2.5s0.4-1.8,1-2.5c1.4-1.4,3.6-1.4,4.9,0c0.7,0.7,1,1.5,1,2.5s-0.4,1.8-1,2.5
		l-2.5,2.5L730,255.5z M732.5,254.1c0.6,0,1.1-0.5,1.1-1.1c0-0.6-0.5-1.1-1.1-1.1c-0.6,0-1,0.5-1,1.1
		C731.4,253.7,731.9,254.1,732.5,254.1L732.5,254.1z M732.5,254.1"/>
	<path style="&st3;" d="M687,260.5c-0.7-0.7-1-1.5-1-2.5c0-0.9,0.4-1.8,1-2.5c1.4-1.4,3.6-1.4,4.9,0c0.7,0.7,1,1.5,1,2.5
		c0,0.9-0.4,1.8-1,2.5l-2.5,2.5L687,260.5z M689.5,259.1c0.6,0,1.1-0.5,1.1-1.1c0-0.6-0.5-1.1-1.1-1.1c-0.6,0-1,0.5-1,1.1
		C688.4,258.7,688.9,259.1,689.5,259.1L689.5,259.1z M689.5,259.1"/>
	<path style="&st3;" d="M732,207.5c-0.7-0.7-1-1.5-1-2.5s0.4-1.8,1-2.5c1.4-1.4,3.6-1.4,4.9,0c0.7,0.7,1,1.5,1,2.5s-0.4,1.8-1,2.5
		l-2.5,2.5L732,207.5z M734.5,206.1c0.6,0,1.1-0.5,1.1-1.1c0-0.6-0.5-1.1-1.1-1.1c-0.6,0-1,0.5-1,1.1
		C733.4,205.7,733.9,206.1,734.5,206.1L734.5,206.1z M734.5,206.1"/>
	<path style="&st3;" d="M685,63.5c-0.7-0.7-1-1.5-1-2.5c0-0.9,0.4-1.8,1-2.5c1.4-1.4,3.6-1.4,4.9,0c0.7,0.7,1,1.5,1,2.5
		c0,0.9-0.4,1.8-1,2.5l-2.5,2.5L685,63.5z M687.5,62.1c0.6,0,1.1-0.5,1.1-1.1c0-0.6-0.5-1.1-1.1-1.1c-0.6,0-1,0.5-1,1.1
		C686.4,61.7,686.9,62.1,687.5,62.1L687.5,62.1z M687.5,62.1"/>
	<path style="&st3;" d="M730,36.5c-0.7-0.7-1-1.5-1-2.5c0-0.9,0.4-1.8,1-2.5c1.4-1.4,3.6-1.4,4.9,0c0.7,0.7,1,1.5,1,2.5
		c0,0.9-0.4,1.8-1,2.5l-2.5,2.5L730,36.5z M732.5,35.1c0.6,0,1.1-0.5,1.1-1.1c0-0.6-0.5-1.1-1.1-1.1c-0.6,0-1,0.5-1,1.1
		C731.4,34.7,731.9,35.1,732.5,35.1L732.5,35.1z M732.5,35.1"/>
	<path style="&st3;" d="M716,11.5c-0.7-0.7-1-1.5-1-2.5c0-0.9,0.4-1.8,1-2.5c1.4-1.4,3.6-1.4,4.9,0c0.7,0.7,1,1.5,1,2.5
		c0,0.9-0.4,1.8-1,2.5l-2.5,2.5L716,11.5z M718.5,10.1c0.6,0,1.1-0.5,1.1-1.1c0-0.6-0.5-1.1-1.1-1.1c-0.6,0-1,0.5-1,1.1
		C717.4,9.7,717.9,10.1,718.5,10.1L718.5,10.1z M718.5,10.1"/>
	<path style="&st3;" d="M738,103.5c-0.7-0.7-1-1.5-1-2.5c0-0.9,0.4-1.8,1-2.5c1.4-1.4,3.6-1.4,4.9,0c0.7,0.7,1,1.5,1,2.5
		c0,0.9-0.4,1.8-1,2.5l-2.5,2.5L738,103.5z M740.5,102.1c0.6,0,1.1-0.5,1.1-1.1c0-0.6-0.5-1.1-1.1-1.1c-0.6,0-1,0.5-1,1.1
		C739.4,101.7,739.9,102.1,740.5,102.1L740.5,102.1z M740.5,102.1"/>
</g>
<g id="文字">
	<text transform="matrix(1 0 0 1 965.75 747.4189)" style="&st4; &st5; &st6;">预留地</text>
	<text transform="matrix(1 0 0 1 1048.75 584.3066)" style="&st4; &st5; &st7;">林  地</text>
	<text transform="matrix(1 0 0 1 900.75 761.4189)" style="&st4; &st5; &st6;">预留地</text>
	<text transform="matrix(1 0 0 1 775.75 795.4189)" style="&st4; &st5; &st6;">预留地</text>
	<text transform="matrix(1 0 0 1 766.75 722.4189)" style="&st4; &st5; &st6;">预留地</text>
	<text transform="matrix(1 0 0 1 886.75 693.4189)" style="&st4; &st5; &st6;">预留地</text>
	<text transform="matrix(1 0 0 1 867.75 637.4189)" style="&st4; &st5; &st6;">预留地</text>
	<text transform="matrix(1 0 0 1 1070.75 652.3066)" style="&st4; &st5; &st7;">林  地</text>
	<text transform="matrix(1 0 0 1 1053.75 731.3066)" style="&st4; &st5; &st7;">林  地</text>
	<text transform="matrix(1 0 0 1 858.75 603.4189)" style="&st4; &st5; &st6;">预留地</text>
	<text transform="matrix(1 0 0 1 951.75 667.4189)" style="&st4; &st5; &st6;">龙田二期</text>
	<text transform="matrix(1 0 0 1 951.75 597.4189)" style="&st4; &st5; &st6;">颖泰嘉和</text>
	<text transform="matrix(1 0 0 1 806.75 652.4189)" style="&st4; &st5; &st8;">宏胜科技</text>
	<text transform="matrix(1 0 0 1 801.75 617.7607)" style="&st4; &st5; &st9;">正源化工</text>
	<text transform="matrix(1 0 0 1 764.75 660.7607)" style="&st4; &st5; &st9;">阜新通泰</text>
	<text transform="matrix(1 0 0 1 757.75 629.7607)" style="&st4; &st5; &st9;">亚凯化工</text>
	<text transform="matrix(1 0 0 1 715.7495 660.4766)" style="&st4; &st5; &st10;">龙瑞二期</text>
	<text transform="matrix(1 0 0 1 770.75 586.7607)" style="&st4; &st5; &st9;">阜新都创新材料科技有限公司</text>
	<text transform="matrix(1 0 0 1 727.75 590.7607)" style="&st4; &st5; &st9;">金特莱二期</text>
	<text transform="matrix(1 0 0 1 690.75 669.7607)" style="&st4; &st5; &st9;">安全隔离带</text>
	<text transform="matrix(1 0 0 1 777.75 547.7607)" style="&st4; &st5; &st9;">宇泽二期</text>
	<text transform="matrix(1 0 0 1 703.75 559.1191)" style="&st4; &st5; &st11;">瑞宁化工</text>
	<text transform="matrix(1 0 0 1 690.75 583.7607)" style="&st4; &st5; &st9;">安全隔离带</text>
	<text transform="matrix(1 0 0 1 725.75 553.5977)" style="&st4; &st5; &st12;">瑞宁预留地</text>
	<text transform="matrix(1 0 0 1 737.75 552.4209)" style="&st4; &st5; &st13;">中间站（三）</text>
	<text transform="matrix(1 0 0 1 839.75 539.9375)" style="&st4; &st5; &st14;">赢凯化工</text>
	<text transform="matrix(1 0 0 1 839.75 575.9375)" style="&st4; &st5; &st14;">辽宁沈源</text>
	<text transform="matrix(1 0 0 1 876.75 521.9375)" style="&st4; &st5; &st14;">污水处理厂</text>
	<text transform="matrix(0.8557 0 0 1 889.75 543.8135)" style="&st4; &st5; &st15;">预留地</text>
	<text transform="matrix(1 0 0 1 890.75 569.9375)" style="&st4; &st5; &st14;">嘉诚化工</text>
	<text transform="matrix(1 0 0 1 923.75 536.9375)" style="&st4; &st5; &st14;">众辉化工</text>
	<text transform="matrix(1 0 0 1 976.75 521.9375)" style="&st4; &st5; &st14;">众辉化工二期</text>
	<text transform="matrix(1 0 0 1 1018.75 514.6138)" style="&st4; &st5; &st16;">安全隔离带</text>
	<text transform="matrix(1 0 0 1 1006.75 562.9375)" style="&st4; &st5; &st14;">变电站</text>
	<text transform="matrix(1 0 0 1 691.75 531.1191)" style="&st4; &st5; &st11;">和发化工</text>
	<text transform="matrix(1 0 0 1 711.75 525.1191)" style="&st4; &st5; &st11;">睿光化工</text>
	<text transform="matrix(1 0 0 1 748.75 521.1191)" style="&st4; &st5; &st11;">天予化工</text>
	<text transform="matrix(1 0 0 1 778.75 513.1191)" style="&st4; &st5; &st11;">宇泽</text>
	<text transform="matrix(1 0 0 1 793.75 508.1191)" style="&st4; &st5; &st11;">金特莱</text>
	<text transform="matrix(1 0 0 1 750.75 473.4575)" style="&st4; &st5; &st17;">金凯化工占地</text>
	<text transform="matrix(1 0 0 1 711.75 475.1191)" style="&st4; &st5; &st11;">东大光明</text>
	<text transform="matrix(1 0 0 1 689.75 479.1191)" style="&st4; &st5; &st11;">孵化中心</text>
	<text transform="matrix(1 0 0 1 819.75 459.1191)" style="&st4; &st5; &st11;">九华化工</text>
	<text transform="matrix(1 0 0 1 856.75 452.1191)" style="&st4; &st5; &st11;">汉道化工</text>
	<text transform="matrix(1 0 0 1 867.75 488.1191)" style="&st4; &st5; &st11;">乾屹化工</text>
	<text transform="matrix(1 0 0 1 826.75 496.1191)" style="&st4; &st5; &st11;">东欣化工</text>
	<text transform="matrix(1 0 0 1 901.75 458.1191)" style="&st4; &st5; &st11;">乾屹二期</text>
	<text transform="matrix(1 0 0 1 937.75 452.0645)" style="&st4; &st5; &st18;">预留地</text>
	<text transform="matrix(1 0 0 1 973.75 460.0645)" style="&st4; &st5; &st18;">预留地</text>
	<text transform="matrix(1 0 0 1 883.75 402.1191)" style="&st4; &st5; &st11;">热源厂</text>
	<text transform="matrix(1 0 0 1 914.75 387.1191)" style="&st4; &st5; &st11;">天立二期</text>
	<text transform="matrix(1 0 0 1 879.75 415.1191)" style="&st4; &st5; &st11;">中科预留地</text>
	<text transform="matrix(1 0 0 1 824.75 420.1191)" style="&st4; &st5; &st11;">龙田化工</text>
	<text transform="matrix(1 0 0 1 814.75 394.1191)" style="&st4; &st5; &st11;">奥瑞凯化工</text>
	<text transform="matrix(1 0 0 1 756.75 408.1191)" style="&st4; &st5; &st11;">清稷升化工</text>
	<text transform="matrix(1 0 0 1 770.75 438.1191)" style="&st4; &st5; &st11;">升联化工</text>
	<text transform="matrix(1 0 0 1 727.75 433.1191)" style="&st4; &st5; &st11;">金凯二期</text>
	<text transform="matrix(1 0 0 1 709.75 447.1191)" style="&st4; &st5; &st11;">金凯</text>
	<text transform="matrix(1 0 0 1 695.75 440.7676)" style="&st4; &st5; &st19;">专家公寓</text>
	<text transform="matrix(1 0 0 1 687.75 448.3926)"><tspan x="0" y="0" style="&st4; &st5; &st20;">氟产业园开发区</tspan><tspan x="0" y="3" style="&st4; &st5; &st20;">管委会办公区</tspan></text>
	<text transform="matrix(1 0 0 1 679.75 450.3926)" style="&st4; &st5; &st20;">消防队</text>
	<text transform="matrix(1 0 0 1 680.75 443.3926)" style="&st4; &st5; &st20;">训练馆</text>
	<text transform="matrix(1 0 0 1 687.75 440.3926)" style="&st4; &st5; &st20;">泵房</text>
	<text transform="matrix(1 0 0 1 696.75 416.3926)" style="&st4; &st5; &st20;">峰成化工</text>
	<text transform="matrix(1 0 0 1 680.75 428.3926)" style="&st4; &st5; &st20;">宏泰</text>
	<text transform="matrix(1 0 0 1 675.75 420.3926)" style="&st4; &st5; &st20;">林大化工</text>
	<text transform="matrix(1 0 0 1 716.75 413.3926)" style="&st4; &st5; &st20;">峰成化工二期</text>
	<text transform="matrix(1 0 0 1 735.75 407.3926)"><tspan x="0" y="0" style="&st4; &st5; &st20;">中间站</tspan><tspan x="0" y="3" style="&st4; &st5; &st20;">（一）</tspan></text>
	<text transform="matrix(1 0 0 1 673.75 399.3926)" style="&st4; &st5; &st20;">朗世化工</text>
	<text transform="matrix(1 0 0 1 669.75 375.3926)" style="&st4; &st5; &st20;">龙瑞</text>
	<text transform="matrix(1 0 0 1 685.7505 376.8945)" style="&st4; &st5; &st21;">达得利化工</text>
	<text transform="matrix(1 0 0 1 707.7495 355.9229)" style="&st4; &st5; &st22;">鑫凯达</text>
	<text transform="matrix(1 0 0 1 707.7495 375.9229)" style="&st4; &st5; &st22;">四达同和</text>
	<text transform="matrix(1 0 0 1 712.7495 392.9229)" style="&st4; &st5; &st22;">泓翔化工</text>
	<text transform="matrix(1 0 0 1 746.7495 381.9229)" style="&st4; &st5; &st22;">弘吉</text>
	<text transform="matrix(1 0 0 1 766.7495 375.9229)" style="&st4; &st5; &st22;">金丰</text>
	<text transform="matrix(1 0 0 1 748.7495 351.9229)" style="&st4; &st5; &st22;">氟托新能源</text>
	<text transform="matrix(1 0 0 1 799.7495 366.9229)" style="&st4; &st5; &st22;">凯森盟化工</text>
	<text transform="matrix(1 0 0 1 803.7495 336.9229)" style="&st4; &st5; &st22;">氟托新能源二期</text>
	<text transform="matrix(1 0 0 1 841.7495 354.9229)" style="&st4; &st5; &st22;">康森化工</text>
	<text transform="matrix(1 0 0 1 870.7495 357.9229)" style="&st4; &st5; &st22;">天立化工</text>
	<text transform="matrix(1 0 0 1 906.7495 348.9229)" style="&st4; &st5; &st22;">预留地</text>
	<text transform="matrix(1 0 0 1 792.7495 307.9229)" style="&st4; &st5; &st22;">氟托三期</text>
	<text transform="matrix(1 0 0 1 771.7495 284.9229)" style="&st4; &st5; &st22;">香源化工</text>
	<text transform="matrix(1 0 0 1 792.7495 282.9229)" style="&st4; &st5; &st22;">预留地</text>
	<text transform="matrix(1 0 0 1 740.7495 318.9229)" style="&st4; &st5; &st22;">凯莱英一期</text>
	<text transform="matrix(1 0 0 1 734.7495 292.9229)" style="&st4; &st5; &st22;">阜新孚隆宝</text>
	<text transform="matrix(1 0 0 1 693.7495 314.9229)" style="&st4; &st5; &st22;">施壮化工</text>
	<text transform="matrix(1 0 0 1 676.749 249.6328)" style="&st4; &st5; &st23;">预留地</text>
	<text transform="matrix(1 0 0 1 720.749 244.6328)" style="&st4; &st5; &st23;">预留地</text>
	<text transform="matrix(1 0 0 1 774.749 233.6328)" style="&st4; &st5; &st23;">预留地</text>
	<text transform="matrix(1 0 0 1 722.7495 213.9229)" style="&st4; &st5; &st22;">九杰燃气一期</text>
	<text transform="matrix(1 0 0 1 675.749 75.6328)" style="&st4; &st5; &st23;">中石化</text>
	<text transform="matrix(1 0 0 1 725.7495 44.7246)" style="&st4; &st5; &st24;">工业净水厂</text>
	<text transform="matrix(1 0 0 1 712.0488 17.7246)"><tspan x="0" y="0" style="&st4; &st5; &st24;">给水加压</tspan><tspan x="2.9" y="3.4" style="&st4; &st5; &st24;">泵站</tspan></text>
	<text transform="matrix(1 0 0 1 735.0488 110.7246)" style="&st4; &st5; &st24;">恒大物流</text>
	<text transform="matrix(0.9998 -1.897000e-02 1.897000e-02 0.9998 614.8227 1078.8999)" style="&st25; &st5; &st26;">化   工  14   路</text>
	<text transform="matrix(0.9998 -1.897000e-02 1.897000e-02 0.9998 714.8227 1071.8999)" style="&st25; &st5; &st26;">化   工  14   路</text>
	<text transform="matrix(0.9667 -0.256 0.256 0.9667 839.4794 1052.7329)" style="&st25; &st5; &st26;">化   工  14   路</text>
	<text transform="matrix(0.9703 -0.2421 0.2421 0.9703 960.45 1024.5394)" style="&st25; &st5; &st26;">化   工  14   路</text>
	<text transform="matrix(0.9703 -0.2421 0.2421 0.9703 1035.45 1006.5395)" style="&st25; &st5; &st26;">化   工  14   路</text>
	<text transform="matrix(0.9703 -0.2421 0.2421 0.9703 947.45 951.5395)" style="&st25; &st5; &st26;">化   工  13   路</text>
	<text transform="matrix(0.9703 -0.2421 0.2421 0.9703 778.45 990.5395)" style="&st25; &st5; &st26;">化   工  13   路</text>
	<text transform="matrix(0.9995 -3.242000e-02 3.242000e-02 0.9995 606.8098 1006.0315)" style="&st25; &st5; &st26;">化   工  13   路</text>
	<text transform="matrix(0.9703 -0.2421 0.2421 0.9703 767.45 916.5395)" style="&st25; &st5; &st26;">化   工  12   路</text>
	<text transform="matrix(0.9703 -0.2421 0.2421 0.9703 859.45 895.5395)" style="&st25; &st5; &st26;">化   工  12   路</text>
	<text transform="matrix(0.9703 -0.2421 0.2421 0.9703 936.45 877.5395)" style="&st25; &st5; &st26;">化   工  12   路</text>
	<text transform="matrix(0.9703 -0.2421 0.2421 0.9703 1033.45 855.5395)" style="&st25; &st5; &st26;">化   工  12   路</text>
	<text transform="matrix(0.9703 -0.2421 0.2421 0.9703 1026.45 780.5395)" style="&st25; &st5; &st26;">化   工  11   路</text>
	<text transform="matrix(0.9703 -0.2421 0.2421 0.9703 916.45 806.5395)" style="&st25; &st5; &st26;">化   工  11   路</text>
	<text transform="matrix(0.9703 -0.2421 0.2421 0.9703 841.45 823.5395)" style="&st25; &st5; &st26;">化   工  11   路</text>
	<text transform="matrix(0.9703 -0.2421 0.2421 0.9703 753.45 844.5395)" style="&st25; &st5; &st26;">化   工  11   路</text>
	<text transform="matrix(0.9703 -0.2421 0.2421 0.9703 739.45 771.5395)" style="&st25; &st5; &st26;">化   工  10   路</text>
	<text transform="matrix(0.9703 -0.2421 0.2421 0.9703 890.45 736.5395)" style="&st25; &st5; &st26;">化   工  10  路</text>
	<text transform="matrix(0.9703 -0.2421 0.2421 0.9703 1018.45 706.5395)" style="&st25; &st5; &st26;">化   工  10  路</text>
	<text transform="matrix(0.9703 -0.2421 0.2421 0.9703 1001.45 634.5395)" style="&st25; &st5; &st26;">化   工  9  路</text>
	<text transform="matrix(0.9703 -0.2421 0.2421 0.9703 880.45 662.5395)" style="&st25; &st5; &st26;">化   工  9  路</text>
	<text transform="matrix(0.9703 -0.2421 0.2421 0.9703 811.45 678.5395)" style="&st25; &st5; &st26;">化   工  9  路</text>
	<text transform="matrix(0.9703 -0.2421 0.2421 0.9703 755.45 691.5395)" style="&st25; &st5; &st26;">化   工  9  路</text>
	<text transform="matrix(0.9703 -0.2421 0.2421 0.9703 725.45 622.5395)" style="&st25; &st5; &st26;">化   工  8  路</text>
	<text transform="matrix(0.9703 -0.2421 0.2421 0.9703 789.45 607.5395)" style="&st25; &st5; &st26;">化   工  8  路</text>
	<text transform="matrix(0.9703 -0.2421 0.2421 0.9703 879.45 586.5395)" style="&st25; &st5; &st26;">化   工  8  路</text>
	<text transform="matrix(0.9703 -0.2421 0.2421 0.9703 977.45 563.5395)" style="&st25; &st5; &st26;">化   工  8  路</text>
	<text transform="matrix(0.9703 -0.2421 0.2421 0.9703 997.45 486.5395)" style="&st25; &st5; &st26;">化   工  7  路</text>
	<text transform="matrix(0.9703 -0.2421 0.2421 0.9703 906.45 506.5395)" style="&st25; &st5; &st26;">化   工  7  路</text>
	<text transform="matrix(0.9703 -0.2421 0.2421 0.9703 829.45 523.5395)" style="&st25; &st5; &st26;">化   工  7  路</text>
	<text transform="matrix(0.9703 -0.2421 0.2421 0.9703 735.45 545.5395)" style="&st25; &st5; &st26;">化   工  7  路</text>
	<text transform="matrix(0.9893 -0.1455 0.1455 0.9893 744.157 454.4742)" style="&st25; &st5; &st26;">化   工  6  路</text>
	<text transform="matrix(0.9793 -0.2023 0.2023 0.9793 832.2858 440.1083)" style="&st25; &st5; &st26;">化   工  6  路</text>
	<text transform="matrix(0.9722 -0.2342 0.2342 0.9722 915.437 421.4937)" style="&st25; &st5; &st26;">化   工  6  路</text>
	<text transform="matrix(0.9734 -0.229 0.229 0.9734 897.4305 366.4509)" style="&st25; &st5; &st26;">化   工  5  路</text>
	<text transform="matrix(0.9734 -0.229 0.229 0.9734 835.4305 380.4509)" style="&st25; &st5; &st26;">化   工  5  路</text>
	<text transform="matrix(0.9734 -0.229 0.229 0.9734 698.4305 412.4509)" style="&st25; &st5; &st26;">化   工  5  路</text>
	<text transform="matrix(0.9734 -0.229 0.229 0.9734 685.4305 353.4509)" style="&st25; &st5; &st26;">化   工  4  路</text>
	<text transform="matrix(0.9734 -0.229 0.229 0.9734 825.4305 320.4509)" style="&st25; &st5; &st26;">化   工  4  路</text>
	<text transform="matrix(0.9734 -0.229 0.229 0.9734 789.4305 268.4509)" style="&st25; &st5; &st26;">化   工  3   路 </text>
	<text transform="matrix(0.9734 -0.229 0.229 0.9734 673.4305 296.4509)" style="&st25; &st5; &st26;">化   工  3   路 </text>
	<text transform="matrix(0.9829 -0.1844 0.1844 0.9829 664.2795 217.8763)" style="&st25; &st5; &st26;">化   工  2   路 </text>
	<text transform="matrix(0.9829 -0.1844 0.1844 0.9829 724.2795 205.8763)" style="&st25; &st5; &st26;">化   工  2   路 </text>
	<text transform="matrix(0.9829 -0.1844 0.1844 0.9829 767.2795 197.8763)" style="&st25; &st5; &st26;">化   工  2   路 </text>
	<text transform="matrix(0.9829 -0.1844 0.1844 0.9829 744.2795 126.8763)" style="&st25; &st5; &st26;">化   工  1  路 </text>
	<text transform="matrix(0.9829 -0.1844 0.1844 0.9829 671.2795 140.8763)" style="&st25; &st5; &st26;">化   工  1  路 </text>
	<text transform="matrix(0.8511 -0.5251 0.5251 0.8511 673.0596 56.5173)" style="&st25; &st5; &st26;">化   工  A  街 </text>
	<text transform="matrix(0.8511 -0.5251 0.5251 0.8511 716.0596 33.5173)" style="&st25; &st5; &st26;">化   工  </text>
	<text transform="matrix(0.9994 -3.510000e-02 3.510000e-02 0.9994 730.2892 24.9614)" style="&st25; &st5; &st26;">G</text>
	<text transform="matrix(0.9994 -3.510000e-02 3.510000e-02 0.9994 737.2892 24.9614)" style="&st25; &st5; &st26;">街</text>
	<text transform="matrix(0.5349 0.8449 -0.8449 0.5349 689.2282 5.1954)" style="&st25; &st5; &st26;">化   工  D  街 </text>
	<text transform="matrix(0.558 -0.8299 0.8299 0.558 658.1465 29.0652)" style="&st25; &st5; &st26;">阜   新   公   路</text>
	<text transform="matrix(0.8554 -0.5179 0.5179 0.8554 677.3658 20.8295)" style="&st25; &st5; &st26;">铁  路</text>
	<text transform="matrix(0.2152 0.9766 -0.9766 0.2152 663.7646 386.3431)" style="&st25; &st5; &st26;">化   工  A  街 </text>
	<text transform="matrix(8.959001e-02 0.996 -0.996 8.959001e-02 653.2087 316.0393)" style="&st25; &st5; &st26;">化   工  A  街 </text>
	<text transform="matrix(8.959001e-02 0.996 -0.996 8.959001e-02 640.2087 176.0393)" style="&st25; &st5; &st26;">化   工  A  街 </text>
	<text transform="matrix(0.2152 0.9766 -0.9766 0.2152 672.7646 428.3431)" style="&st25; &st5; &st26;">化   工  A  街 </text>
	<text transform="matrix(1.415000e-02 0.9999 -0.9999 1.415000e-02 688.0657 576.8792)" style="&st25; &st5; &st26;">化   工  A  街 </text>
	<text transform="matrix(1.415000e-02 0.9999 -0.9999 1.415000e-02 693.0657 648.8792)" style="&st25; &st5; &st26;">化   工  A  街 </text>
	<text transform="matrix(-0.1126 0.9936 -0.9936 -0.1126 697.5118 747.7607)" style="&st25; &st5; &st26;">化   工  A  街 </text>
	<text transform="matrix(-0.6144 0.789 -0.789 -0.6144 645.6065 855.6379)" style="&st25; &st5; &st26;">化   工  A  街 </text>
	<text transform="matrix(6.511000e-02 0.9979 -0.9979 6.511000e-02 581.4501 1030.9629)" style="&st25; &st5; &st26;">化   工  A  街 </text>
	<text transform="matrix(6.511000e-02 0.9979 -0.9979 6.511000e-02 657.4501 957.9629)" style="&st25; &st5; &st26;">化   工  H  街 </text>
	<text transform="matrix(6.511000e-02 0.9979 -0.9979 6.511000e-02 738.4501 951.9629)" style="&st25; &st5; &st26;">化   工  I  街 </text>
	<text transform="matrix(0.1776 0.9841 -0.9841 0.1776 903.2828 910.285)" style="&st25; &st5; &st26;">化   工  D  街 </text>
	<text transform="matrix(0.1776 0.9841 -0.9841 0.1776 922.2828 989.285)" style="&st25; &st5; &st26;">化   工  D  街 </text>
	<text transform="matrix(0.1776 0.9841 -0.9841 0.1776 870.2828 764.285)" style="&st25; &st5; &st26;">化   工  D  街 </text>
	<text transform="matrix(0.1776 0.9841 -0.9841 0.1776 836.2828 622.2849)" style="&st25; &st5; &st26;">化   工  D  街 </text>
	<text transform="matrix(0.1776 0.9841 -0.9841 0.1776 818.2828 540.2849)" style="&st25; &st5; &st26;">化   工  D  街 </text>
	<text transform="matrix(0.1776 0.9841 -0.9841 0.1776 794.2828 409.2849)" style="&st25; &st5; &st26;">化   工  D  街 </text>
	<text transform="matrix(0.1776 0.9841 -0.9841 0.1776 777.2828 334.2849)" style="&st25; &st5; &st26;">化   工  D  街 </text>
	<text transform="matrix(0.1776 0.9841 -0.9841 0.1776 761.2828 268.2849)" style="&st25; &st5; &st26;">化   工  D  街 </text>
	<text transform="matrix(0.1776 0.9841 -0.9841 0.1776 748.2828 202.2849)" style="&st25; &st5; &st26;">化   工  D  街 </text>
	<text transform="matrix(0.1776 0.9841 -0.9841 0.1776 737.2828 135.2849)" style="&st25; &st5; &st26;">化   工  D  街 </text>
	<text transform="matrix(0.1776 0.9841 -0.9841 0.1776 692.2828 158.2849)" style="&st25; &st5; &st26;">化   工  B  街 </text>
	<text transform="matrix(0.1776 0.9841 -0.9841 0.1776 720.2828 299.2849)" style="&st25; &st5; &st26;">化   工  B  街 </text>
	<text transform="matrix(0.1776 0.9841 -0.9841 0.1776 738.2828 379.2849)" style="&st25; &st5; &st26;">化   工  B  街 </text>
	<text transform="matrix(0.1776 0.9841 -0.9841 0.1776 907.2828 548.2849)" style="&st25; &st5; &st26;">化   工  E  街 </text>
	<text transform="matrix(0.1776 0.9841 -0.9841 0.1776 919.2828 599.2849)" style="&st25; &st5; &st26;">化   工  E  街 </text>
	<text transform="matrix(0.1776 0.9841 -0.9841 0.1776 935.2828 667.2849)" style="&st25; &st5; &st26;">化   工  E  街 </text>
	<text transform="matrix(0.1776 0.9841 -0.9841 0.1776 968.2828 811.2849)" style="&st25; &st5; &st26;">化   工  E  街 </text>
	<text transform="matrix(0.1776 0.9841 -0.9841 0.1776 1002.2828 959.2849)" style="&st25; &st5; &st26;">化   工  E  街 </text>
	<text transform="matrix(0.2001 0.9798 -0.9798 0.2001 884.0839 447.3232)" style="&st25; &st5; &st26;">化   工  E  街 </text>
	<text transform="matrix(0.2001 0.9798 -0.9798 0.2001 855.0839 324.3232)" style="&st25; &st5; &st26;">化   工  E  街 </text>
	<text transform="matrix(0.5054 0.8629 -0.8629 0.5054 809.5869 214.0344)" style="&st25; &st5; &st26;">化   工  G  街 </text>
	<text transform="matrix(0.7601 0.6498 -0.6498 0.7601 899.9308 319.8036)" style="&st25; &st5; &st26;">化   工  G  街 </text>
	<text transform="matrix(0.5952 0.8036 -0.8036 0.5952 997.624 430.8811)" style="&st25; &st5; &st26;">化   工  G  街 </text>
	<text transform="matrix(0.2094 0.9778 -0.9778 0.2094 1094.9321 568.3739)" style="&st25; &st5; &st26;">化   工  G  街 </text>
	<text transform="matrix(0.1613 0.9869 -0.9869 0.1613 1124.4634 709.2118)" style="&st25; &st5; &st26;">化   工  G  街 </text>
	<text transform="matrix(-0.3085 0.9512 -0.9512 -0.3085 1095.0305 872.015)" style="&st25; &st5; &st26;">化   工  G  街 </text>
</g>
</svg>
